<?xml version="1.0" encoding="UTF-8" standalone="no" ?>
<!DOCTYPE svg PUBLIC "-//W3C//DTD SVG 1.1//EN" "http://www.w3.org/Graphics/SVG/1.1/DTD/svg11.dtd">
<svg xmlns="http://www.w3.org/2000/svg" xmlns:xlink="http://www.w3.org/1999/xlink" version="1.1" width="1080" height="1080" viewBox="0 0 1080 1080" xml:space="preserve">
<desc>Created with Fabric.js 5.2.4</desc>
<defs>
</defs>
<rect x="0" y="0" width="100%" height="100%" fill="transparent"></rect>
<g transform="matrix(1 0 0 1 540 540)" id="5969446c-ee27-4074-b13f-942d79dac5e7"  >
<rect style="stroke: none; stroke-width: 1; stroke-dasharray: none; stroke-linecap: butt; stroke-dashoffset: 0; stroke-linejoin: miter; stroke-miterlimit: 4; fill: rgb(255,255,255); fill-rule: nonzero; opacity: 1; visibility: hidden;" vector-effect="non-scaling-stroke"  x="-540" y="-540" rx="0" ry="0" width="1080" height="1080" />
</g>
<g transform="matrix(1 0 0 1 540 540)" id="545ebd95-5923-4f4b-99f8-70f853606720"  >
</g>
<g transform="matrix(7.42 0 0 7.42 540 511.56)" id="06d1c755-922a-47c3-a0e8-99b5dce5308c"  >
<path style="stroke: rgb(0,0,0); stroke-width: 0; stroke-dasharray: none; stroke-linecap: butt; stroke-dashoffset: 0; stroke-linejoin: miter; stroke-miterlimit: 4; fill: rgb(63,174,209); fill-rule: nonzero; opacity: 1;" vector-effect="non-scaling-stroke"  transform=" translate(-12, -12)" d="M 15.9 4.888 C 15.492 3.22 13.888 2 12 2 C 10.106 2 8.496 3.2279999999999998 8.096 4.906000000000001 L 8.09 4.892 L 7.82 5.0280000000000005 C 4.126235592346945 6.964752902827916 2.2470319556823153 11.185553696982177 3.2793835627483725 15.226488918591775 C 4.31173516981443 19.26742414020137 7.985143258255219 22.069680136316748 12.15523757967206 21.997426026787245 C 16.3253319010889 21.925171917257742 19.899456285694228 18.997339863441077 20.791197841182075 14.923066393965442 C 21.682939396669923 10.84879292448981 19.658642278026036 6.695627044412679 15.9 4.887999999999998 z M 15.726 7.193 L 15.760000000000002 7.093999999999999 C 18.384085303794507 8.765978387943965 19.58956767659402 11.969365371663969 18.718782162487273 14.956515853270787 C 17.847996648380526 17.943666334877605 15.109984438550518 19.99748352669845 11.998500000000003 19.997483526698453 C 8.887015561449491 19.997483526698453 6.149003351619481 17.943666334877612 5.278217837512733 14.95651585327079 C 4.407432323405985 11.969365371663972 5.612914696205493 8.76597838794397 8.236999999999997 7.094000000000003 C 8.347000000000001 7.406 8.490000000000002 7.710999999999999 8.667000000000002 8.01 C 6.469594003869737 9.478309824918957 5.491680023477629 12.211498128866443 6.258871706696554 14.74051844807752 C 7.026063389915478 17.269538767288594 9.357674456423055 18.998765152820887 12.0005 18.998765152820887 C 14.643325543576946 18.998765152820887 16.974936610084523 17.269538767288594 17.74212829330345 14.74051844807752 C 18.509319976522374 12.211498128866445 17.531405996130268 9.47830982491896 15.334000000000003 8.010000000000002 C 15.491000000000001 7.742999999999999 15.623000000000001 7.47 15.726 7.193 z M 14.081000000000001 9.583 L 14.218000000000002 9.446 L 14.082000000000003 9.583 L 14.081000000000003 9.583 z M 14.081000000000001 9.583 C 15.612415526016887 10.515406445674516 16.336314730794683 12.35294365038336 15.852328432870557 14.079319205319962 C 15.36834213494643 15.805694760256563 13.79471662414293 16.999125021778177 12.001781849065022 16.999555808605443 C 10.208847073987112 16.99998659543271 8.634648256072095 15.8073126588339 8.149832424669675 14.081169877114341 C 7.665016593267254 12.355027095394782 8.38803270768982 10.5171422416424 9.918999999999999 9.584 C 10.388599776148535 10.056384393531001 10.906049188918109 10.478655287371456 11.463 10.843999999999998 L 12.000000000000002 11.184999999999999 L 12.537000000000003 10.844 C 13.094282113016533 10.478688407436186 13.612066507485311 10.056417639131553 14.081999999999999 9.584000000000003 z M 10 5.723 C 10 4.792 10.873 4 12 4 C 13.127 4 14 4.792 14 5.7219999999999995 C 14 6.446999999999999 13.556 7.254999999999999 12.782 8.052999999999999 C 12.617468025435276 8.222715922490599 12.44563930094487 8.385202502736865 12.267 8.54 L 12 8.762 L 11.733 8.540000000000001 C 11.55436069905513 8.385202502736867 11.382531974564724 8.2227159224906 11.218 8.053 C 10.444 7.255 10 6.447 10 5.723 z" stroke-linecap="round" />
</g>
</svg>