<svg xmlns="http://www.w3.org/2000/svg" xmlns:v="https://svgstorm.com"
viewBox = "0 0 244 124"
width="100"
height="100">
<g fill="None" fill-opacity="0.0" stroke="#E9A233" stroke-opacity="1.00" stroke-width="0.3"><path d="
M 0.00 8.00 
C 4.33 8.00 8.67 8.00 13.00 8.00
C 12.45 6.54 10.60 5.82 11.00 4.00
C 9.91 2.87 8.86 1.26 8.00 0.00
L 0.00 0.00
L 0.00 8.00 Z"/>
</g>
<g fill="None" fill-opacity="0.0" stroke="#FBD093" stroke-opacity="1.00" stroke-width="0.3"><path d="
M 11.00 4.00 
C 12.50 5.56 14.48 7.54 16.00 9.00
C 17.11 10.07 19.00 10.93 20.00 12.00
C 16.74 7.70 12.15 4.31 9.00 0.00
L 8.00 0.00
C 8.86 1.26 9.91 2.87 11.00 4.00 Z"/>
</g>
<g fill="None" fill-opacity="0.0" stroke="#FEF3E2" stroke-opacity="1.00" stroke-width="0.3"><path d="
M 20.00 12.00 
C 20.68 12.89 21.29 14.22 22.00 15.00
C 27.98 21.52 35.25 27.27 41.00 34.00
C 46.03 39.03 52.95 43.71 56.00 50.00
C 54.75 50.30 54.29 51.83 53.00 52.00
C 52.63 52.53 52.38 53.57 52.00 54.00
C 52.35 53.77 53.00 54.00 53.00 54.00
C 53.86 52.83 55.20 51.97 56.00 51.00
C 57.47 49.22 57.71 45.82 60.00 45.00
C 54.54 40.40 54.95 28.71 50.23 22.77 C 45.51 16.83 44.59 6.29 40.00 0.00
L 9.00 0.00
C 12.15 4.31 16.74 7.70 20.00 12.00 Z"/>
</g>
<g fill="None" fill-opacity="0.0" stroke="#D22F24" stroke-opacity="1.00" stroke-width="0.3"><path d="
M 60.00 45.00 
C 60.37 44.87 62.06 45.24 63.00 45.00
C 64.49 44.61 65.24 43.87 67.00 44.00
C 65.67 29.33 64.42 14.89 64.00 0.00
L 40.00 0.00
C 44.59 6.29 45.51 16.83 50.23 22.77 C 54.95 28.71 54.54 40.40 60.00 45.00 Z"/>
</g>
<g fill="None" fill-opacity="0.0" stroke="#B12E03" stroke-opacity="1.00" stroke-width="0.3"><path d="
M 67.00 44.00 
C 67.50 44.04 68.00 44.00 68.00 44.00
C 69.34 29.14 64.45 15.00 66.00 0.00
L 64.00 0.00
C 64.42 14.89 65.67 29.33 67.00 44.00 Z"/>
</g>
<g fill="None" fill-opacity="0.0" stroke="#FEF313" stroke-opacity="1.00" stroke-width="0.3"><path d="
M 68.00 44.00 
C 70.38 45.85 72.14 43.89 74.00 44.00
C 79.09 39.86 77.27 28.57 80.78 22.78 C 84.28 16.98 83.27 6.06 87.00 0.00
L 66.00 0.00
C 64.45 15.00 69.34 29.14 68.00 44.00 Z"/>
</g>
<g fill="None" fill-opacity="0.0" stroke="#A12F01" stroke-opacity="1.00" stroke-width="0.3"><path d="
M 74.00 44.00 
C 74.38 44.02 76.66 44.83 77.00 45.00
C 73.12 40.05 82.02 29.25 81.93 22.93 C 81.84 16.60 88.19 6.84 88.00 0.00
L 87.00 0.00
C 83.27 6.06 84.28 16.98 80.78 22.78 C 77.27 28.57 79.09 39.86 74.00 44.00 Z"/>
</g>
<g fill="None" fill-opacity="0.0" stroke="#C42822" stroke-opacity="1.00" stroke-width="0.3"><path d="
M 77.00 45.00 
C 77.59 45.29 78.20 45.68 79.00 46.00
C 79.72 46.29 80.18 46.96 81.00 47.00
C 84.37 46.18 85.94 37.58 89.25 35.25 C 92.56 32.92 94.24 26.45 97.30 23.30 C 100.37 20.16 103.30 15.55 105.77 11.77 C 108.24 7.99 111.48 3.84 114.00 0.00
L 88.00 0.00
C 88.19 6.84 81.84 16.60 81.93 22.93 C 82.02 29.25 73.12 40.05 77.00 45.00 Z"/>
</g>
<g fill="None" fill-opacity="0.0" stroke="#8D231B" stroke-opacity="1.00" stroke-width="0.3"><path d="
M 81.00 47.00 
C 81.47 47.02 83.72 45.30 84.00 45.00
C 94.02 29.56 105.67 15.23 116.00 0.00
L 114.00 0.00
C 111.48 3.84 108.24 7.99 105.77 11.77 C 103.30 15.55 100.37 20.16 97.30 23.30 C 94.24 26.45 92.56 32.92 89.25 35.25 C 85.94 37.58 84.37 46.18 81.00 47.00 Z"/>
</g>
<g fill="None" fill-opacity="0.0" stroke="#FCEFE0" stroke-opacity="1.00" stroke-width="0.3"><path d="
M 84.00 45.00 
C 83.74 45.40 82.28 47.93 82.00 48.00
C 83.33 48.96 84.64 50.94 86.00 52.00
C 88.40 45.51 100.85 44.07 105.70 38.70 C 110.55 33.32 119.79 29.44 125.75 24.75 C 131.70 20.05 139.51 15.19 146.00 11.00
C 146.74 10.12 147.49 9.00 148.00 8.00
C 145.10 6.18 142.81 3.17 142.00 0.00
L 116.00 0.00
C 105.67 15.23 94.02 29.56 84.00 45.00 Z"/>
</g>
<g fill="None" fill-opacity="0.0" stroke="#E3C6B5" stroke-opacity="1.00" stroke-width="0.3"><path d="
M 146.00 11.00 
C 150.45 8.13 156.07 5.10 160.00 2.00
C 160.47 1.63 160.80 0.52 161.00 0.00
L 142.00 0.00
C 142.81 3.17 145.10 6.18 148.00 8.00
C 147.49 9.00 146.74 10.12 146.00 11.00 Z"/>
</g>
<g fill="None" fill-opacity="0.0" stroke="#923415" stroke-opacity="1.00" stroke-width="0.3"><path d="
M 160.00 2.00 
C 158.71 4.97 170.88 15.25 170.00 21.00
C 172.11 19.13 173.76 22.78 176.00 23.00
C 177.21 23.08 185.23 18.25 185.00 19.00
C 184.62 18.04 184.46 17.01 184.00 16.00
C 181.79 13.78 177.86 17.33 175.00 16.00
C 172.07 10.96 164.11 7.18 168.00 0.00
L 161.00 0.00
C 160.80 0.52 160.47 1.63 160.00 2.00 Z"/>
</g>
<g fill="None" fill-opacity="0.0" stroke="#A24E17" stroke-opacity="1.00" stroke-width="0.3"><path d="
M 184.00 16.00 
C 183.22 14.29 182.68 12.68 182.00 11.00
C 179.48 7.83 172.48 6.23 175.00 0.00
L 168.00 0.00
C 164.11 7.18 172.07 10.96 175.00 16.00
C 177.86 17.33 181.79 13.78 184.00 16.00 Z"/>
</g>
<g fill="None" fill-opacity="0.0" stroke="#CB8438" stroke-opacity="1.00" stroke-width="0.3"><path d="
M 182.00 11.00 
C 181.78 10.46 181.31 9.45 181.00 9.00
C 179.06 6.17 176.68 3.75 177.00 0.00
L 175.00 0.00
C 172.48 6.23 179.48 7.83 182.00 11.00 Z"/>
</g>
<g fill="None" fill-opacity="0.0" stroke="#FCE89F" stroke-opacity="1.00" stroke-width="0.3"><path d="
M 181.00 9.00 
C 180.99 9.02 187.50 9.48 188.69 7.69 C 189.89 5.91 193.65 2.04 196.00 3.00
C 195.54 2.01 194.76 1.22 195.00 0.00
L 189.00 0.00
C 190.06 6.40 180.26 6.27 181.00 0.00
L 177.00 0.00
C 176.68 3.75 179.06 6.17 181.00 9.00 Z"/>
</g>
<g fill="None" fill-opacity="0.0" stroke="#FEFDF2" stroke-opacity="1.00" stroke-width="0.3"><path d="
M 189.00 0.00 
L 181.00 0.00
C 180.26 6.27 190.06 6.40 189.00 0.00 Z"/>
</g>
<g fill="None" fill-opacity="0.0" stroke="#FEF9D8" stroke-opacity="1.00" stroke-width="0.3"><path d="
M 196.00 3.00 
C 206.92 26.66 211.55 51.71 209.00 78.00
C 209.00 79.58 209.59 82.56 209.00 84.00
C 217.19 55.87 207.05 24.44 197.00 0.00
L 195.00 0.00
C 194.76 1.22 195.54 2.01 196.00 3.00 Z"/>
</g>
<g fill="None" fill-opacity="0.0" stroke="#FEFEFE" stroke-opacity="1.00" stroke-width="0.3"><path d="
M 209.00 84.00 
C 207.83 88.01 207.91 92.49 206.00 96.00
C 205.79 96.39 206.00 97.00 206.00 97.00
C 211.32 103.82 198.10 116.75 199.00 124.00
L 244.00 124.00
L 244.00 0.00
L 197.00 0.00
C 207.05 24.44 217.19 55.87 209.00 84.00 Z"/>
</g>
<g fill="None" fill-opacity="0.0" stroke="#9C241B" stroke-opacity="1.00" stroke-width="0.3"><path d="
M 146.00 11.00 
C 139.51 15.19 131.70 20.05 125.75 24.75 C 119.79 29.44 110.55 33.32 105.70 38.70 C 100.85 44.07 88.40 45.51 86.00 52.00
C 86.27 52.21 86.76 52.74 87.00 53.00
C 98.90 48.75 107.55 36.57 119.08 31.08 C 130.61 25.59 140.27 14.37 152.00 9.00
C 154.95 13.26 146.58 16.90 155.00 16.00
C 153.77 24.12 161.43 29.58 157.00 38.00
C 158.59 39.87 161.73 36.22 163.00 39.00
C 168.30 37.58 173.56 36.02 179.00 35.00
C 178.83 30.25 175.60 27.75 176.00 23.00
C 173.76 22.78 172.11 19.13 170.00 21.00
C 170.88 15.25 158.71 4.97 160.00 2.00
C 156.07 5.10 150.45 8.13 146.00 11.00 Z"/>
</g>
<g fill="None" fill-opacity="0.0" stroke="#F8BD53" stroke-opacity="1.00" stroke-width="0.3"><path d="
M 181.00 9.00 
C 181.31 9.45 181.78 10.46 182.00 11.00
C 182.68 12.68 183.22 14.29 184.00 16.00
C 184.46 17.01 184.62 18.04 185.00 19.00
C 186.69 23.27 187.37 27.84 189.00 32.00
C 189.18 32.45 189.74 33.30 190.00 34.00
C 192.28 36.70 192.45 29.14 190.69 27.31 C 188.94 25.47 189.56 19.49 189.00 17.00
C 192.25 16.62 195.03 15.07 198.00 14.00
C 200.10 21.34 205.28 27.72 204.00 36.00
C 194.38 30.85 188.70 42.11 193.00 50.00
C 193.16 50.44 193.00 51.00 193.00 51.00
C 194.57 55.00 203.89 50.39 207.00 50.00
C 210.32 58.64 208.56 68.62 209.00 78.00
C 211.55 51.71 206.92 26.66 196.00 3.00
C 193.65 2.04 189.89 5.91 188.69 7.69 C 187.50 9.48 180.99 9.02 181.00 9.00
M 203.00 39.00 
C 209.12 41.40 204.92 52.64 197.78 49.22 C 190.64 45.80 195.94 36.23 203.00 39.00 Z"/>
</g>
<g fill="None" fill-opacity="0.0" stroke="#E7882F" stroke-opacity="1.00" stroke-width="0.3"><path d="
M 0.00 8.00 
L 0.00 13.00
C 5.60 16.67 12.07 8.65 16.00 9.00
C 14.48 7.54 12.50 5.56 11.00 4.00
C 10.60 5.82 12.45 6.54 13.00 8.00
C 8.67 8.00 4.33 8.00 0.00 8.00 Z"/>
</g>
<g fill="None" fill-opacity="0.0" stroke="#E86D2C" stroke-opacity="1.00" stroke-width="0.3"><path d="
M 0.00 13.00 
L 0.00 23.00
C 8.30 26.96 16.58 15.50 23.00 18.00
C 22.26 16.97 22.48 16.03 22.00 15.00
C 21.29 14.22 20.68 12.89 20.00 12.00
C 19.00 10.93 17.11 10.07 16.00 9.00
C 12.07 8.65 5.60 16.67 0.00 13.00 Z"/>
</g>
<g fill="None" fill-opacity="0.0" stroke="#B92820" stroke-opacity="1.00" stroke-width="0.3"><path d="
M 87.00 53.00 
C 87.79 53.85 87.88 54.90 88.00 56.00
C 88.11 56.98 87.97 58.02 88.00 59.00
C 88.31 59.24 89.51 59.07 90.00 59.00
C 91.58 58.78 93.41 58.41 95.00 58.00
C 104.56 53.79 116.58 50.93 128.02 48.02 C 139.47 45.12 151.52 42.07 163.00 39.00
C 161.73 36.22 158.59 39.87 157.00 38.00
C 161.43 29.58 153.77 24.12 155.00 16.00
C 146.58 16.90 154.95 13.26 152.00 9.00
C 140.27 14.37 130.61 25.59 119.08 31.08 C 107.55 36.57 98.90 48.75 87.00 53.00 Z"/>
</g>
<g fill="None" fill-opacity="0.0" stroke="#F68A17" stroke-opacity="1.00" stroke-width="0.3"><path d="
M 190.00 34.00 
C 191.63 38.46 189.04 46.97 193.00 50.00
C 188.70 42.11 194.38 30.85 204.00 36.00
C 205.28 27.72 200.10 21.34 198.00 14.00
C 195.03 15.07 192.25 16.62 189.00 17.00
C 189.56 19.49 188.94 25.47 190.69 27.31 C 192.45 29.14 192.28 36.70 190.00 34.00 Z"/>
</g>
<g fill="None" fill-opacity="0.0" stroke="#AF3020" stroke-opacity="1.00" stroke-width="0.3"><path d="
M 23.00 18.00 
C 25.36 21.28 30.12 25.12 33.00 28.00
C 39.75 34.75 47.11 41.48 54.00 48.00
C 51.29 57.56 43.43 49.16 37.77 47.23 C 32.11 45.30 24.15 39.79 19.00 40.00
C 23.81 42.25 29.13 46.53 34.23 47.77 C 39.33 49.01 44.96 54.63 50.00 55.00
C 51.36 55.10 51.26 54.85 52.00 54.00
C 52.38 53.57 52.63 52.53 53.00 52.00
C 56.88 46.54 44.88 38.54 41.00 34.00
C 35.25 27.27 27.98 21.52 22.00 15.00
C 22.48 16.03 22.26 16.97 23.00 18.00 Z"/>
</g>
<g fill="None" fill-opacity="0.0" stroke="#E65329" stroke-opacity="1.00" stroke-width="0.3"><path d="
M 0.00 23.00 
L 0.00 30.00
C 8.32 33.36 15.46 36.87 22.00 37.00
C 23.10 32.01 29.16 29.18 33.00 28.00
C 30.12 25.12 25.36 21.28 23.00 18.00
C 16.58 15.50 8.30 26.96 0.00 23.00 Z"/>
</g>
<g fill="None" fill-opacity="0.0" stroke="#822113" stroke-opacity="1.00" stroke-width="0.3"><path d="
M 176.00 23.00 
C 175.60 27.75 178.83 30.25 179.00 35.00
C 173.56 36.02 168.30 37.58 163.00 39.00
C 151.52 42.07 139.47 45.12 128.02 48.02 C 116.58 50.93 104.56 53.79 95.00 58.00
C 115.68 52.73 136.28 47.21 157.00 42.00
C 160.67 41.08 164.33 39.94 168.00 39.00
C 169.33 38.66 170.67 38.31 172.00 38.00
C 174.32 37.46 176.65 37.55 179.00 37.00
C 180.12 36.74 182.53 36.38 184.00 36.00
C 185.12 35.71 188.98 32.00 189.00 32.00
C 187.37 27.84 186.69 23.27 185.00 19.00
C 185.23 18.25 177.21 23.08 176.00 23.00 Z"/>
</g>
<g fill="None" fill-opacity="0.0" stroke="#DB3325" stroke-opacity="1.00" stroke-width="0.3"><path d="
M 0.00 30.00 
L 0.00 31.00
C 6.20 34.43 12.64 37.03 19.00 40.00
C 24.15 39.79 32.11 45.30 37.77 47.23 C 43.43 49.16 51.29 57.56 54.00 48.00
C 47.11 41.48 39.75 34.75 33.00 28.00
C 29.16 29.18 23.10 32.01 22.00 37.00
C 15.46 36.87 8.32 33.36 0.00 30.00 Z"/>
</g>
<g fill="None" fill-opacity="0.0" stroke="#FEF0E1" stroke-opacity="1.00" stroke-width="0.3"><path d="
M 0.00 56.00 
C 15.96 56.25 32.93 62.08 49.00 61.00
C 49.50 60.97 50.00 61.00 50.00 61.00
C 50.00 60.50 49.92 59.49 50.00 59.00
C 50.03 58.81 50.36 54.62 50.00 55.00
C 44.96 54.63 39.33 49.01 34.23 47.77 C 29.13 46.53 23.81 42.25 19.00 40.00
C 12.64 37.03 6.20 34.43 0.00 31.00
L 0.00 56.00 Z"/>
</g>
<g fill="None" fill-opacity="0.0" stroke="#A15A30" stroke-opacity="1.00" stroke-width="0.3"><path d="
M 184.00 36.00 
C 182.19 38.86 186.36 46.44 186.00 51.00
C 187.70 51.93 188.97 51.31 191.00 52.00
C 191.19 52.07 192.95 52.93 193.00 53.00
C 192.94 52.51 193.00 51.50 193.00 51.00
C 193.00 51.00 193.16 50.44 193.00 50.00
C 189.04 46.97 191.63 38.46 190.00 34.00
C 189.74 33.30 189.18 32.45 189.00 32.00
C 188.98 32.00 185.12 35.71 184.00 36.00 Z"/>
</g>
<g fill="None" fill-opacity="0.0" stroke="#DA7870" stroke-opacity="1.00" stroke-width="0.3"><path d="
M 53.00 52.00 
C 54.29 51.83 54.75 50.30 56.00 50.00
C 52.95 43.71 46.03 39.03 41.00 34.00
C 44.88 38.54 56.88 46.54 53.00 52.00 Z"/>
</g>
<g fill="None" fill-opacity="0.0" stroke="#A27662" stroke-opacity="1.00" stroke-width="0.3"><path d="
M 179.00 37.00 
C 177.90 38.64 182.34 44.99 181.98 48.02 C 181.61 51.06 181.90 58.78 182.00 62.00 C 182.10 65.22 180.47 72.93 184.00 74.00
C 185.50 73.81 185.71 54.70 186.00 51.00
C 186.36 46.44 182.19 38.86 184.00 36.00
C 182.53 36.38 180.12 36.74 179.00 37.00 Z"/>
</g>
<g fill="None" fill-opacity="0.0" stroke="#B89484" stroke-opacity="1.00" stroke-width="0.3"><path d="
M 172.00 38.00 
C 172.39 38.04 173.95 39.87 175.00 39.00
C 176.23 49.96 178.85 64.46 176.00 74.00
C 177.64 74.14 179.35 74.00 181.00 74.00
C 181.97 74.00 183.04 74.12 184.00 74.00
C 180.47 72.93 182.10 65.22 182.00 62.00 C 181.90 58.78 181.61 51.06 181.98 48.02 C 182.34 44.99 177.90 38.64 179.00 37.00
C 176.65 37.55 174.32 37.46 172.00 38.00 Z"/>
</g>
<g fill="None" fill-opacity="0.0" stroke="#D0B4A4" stroke-opacity="1.00" stroke-width="0.3"><path d="
M 168.00 39.00 
C 172.22 40.43 170.53 48.80 171.93 53.07 C 173.32 57.34 171.03 67.22 172.00 72.00
C 170.67 72.00 169.33 72.00 168.00 72.00
C 167.51 71.93 166.50 72.00 166.00 72.00
C 168.73 72.26 172.85 73.73 176.00 74.00
C 178.85 64.46 176.23 49.96 175.00 39.00
C 173.95 39.87 172.39 38.04 172.00 38.00
C 170.67 38.31 169.33 38.66 168.00 39.00 Z"/>
</g>
<g fill="None" fill-opacity="0.0" stroke="#E3CFBE" stroke-opacity="1.00" stroke-width="0.3"><path d="
M 157.00 42.00 
C 158.12 41.93 161.44 44.34 163.00 42.00
C 164.82 50.76 165.37 61.12 165.00 71.00
C 166.00 71.11 167.73 70.53 168.00 72.00
C 169.33 72.00 170.67 72.00 172.00 72.00
C 171.03 67.22 173.32 57.34 171.93 53.07 C 170.53 48.80 172.22 40.43 168.00 39.00
C 164.33 39.94 160.67 41.08 157.00 42.00 Z"/>
</g>
<g fill="None" fill-opacity="0.0" stroke="#FEEFB7" stroke-opacity="1.00" stroke-width="0.3"><path d="
M 203.00 39.00 
C 195.94 36.23 190.64 45.80 197.78 49.22 C 204.92 52.64 209.12 41.40 203.00 39.00
M 202.00 41.00 
C 206.29 42.76 203.17 50.21 199.00 48.00 C 194.82 45.78 197.48 39.15 202.00 41.00 Z"/>
</g>
<g fill="None" fill-opacity="0.0" stroke="#FEFCED" stroke-opacity="1.00" stroke-width="0.3"><path d="
M 202.00 41.00 
C 197.48 39.15 194.82 45.78 199.00 48.00 C 203.17 50.21 206.29 42.76 202.00 41.00 Z"/>
</g>
<g fill="None" fill-opacity="0.0" stroke="#FBEDDE" stroke-opacity="1.00" stroke-width="0.3"><path d="
M 95.00 58.00 
C 93.41 58.41 91.58 58.78 90.00 59.00
C 90.91 60.07 89.49 63.63 90.00 65.00
C 90.09 65.25 90.77 65.95 91.00 66.00
C 94.35 66.74 98.56 65.90 102.00 66.00
C 104.29 66.06 106.35 66.68 108.00 67.00
C 127.18 68.83 146.45 72.00 166.00 72.00
C 166.50 72.00 167.51 71.93 168.00 72.00
C 167.73 70.53 166.00 71.11 165.00 71.00
C 165.37 61.12 164.82 50.76 163.00 42.00
C 161.44 44.34 158.12 41.93 157.00 42.00
C 136.28 47.21 115.68 52.73 95.00 58.00 Z"/>
</g>
<g fill="None" fill-opacity="0.0" stroke="#FDEFA5" stroke-opacity="1.00" stroke-width="0.3"><path d="
M 63.00 45.00 
C 67.55 45.35 76.03 45.45 73.74 50.74 C 71.46 56.04 70.75 62.45 65.75 59.24 C 60.75 56.04 61.72 48.64 56.00 51.00
C 55.20 51.97 53.86 52.83 53.00 54.00
C 53.77 53.22 55.09 52.53 56.00 52.00
C 59.78 56.26 63.84 62.23 70.00 62.00
C 73.25 60.99 74.92 54.05 77.75 51.75 C 80.59 49.46 86.34 52.25 88.00 56.00
C 87.88 54.90 87.79 53.85 87.00 53.00
C 86.76 52.74 86.27 52.21 86.00 52.00
C 84.64 50.94 83.33 48.96 82.00 48.00
C 81.57 47.69 79.46 46.27 79.00 46.00
C 78.20 45.68 77.59 45.29 77.00 45.00
C 76.66 44.83 74.38 44.02 74.00 44.00
C 72.14 43.89 70.38 45.85 68.00 44.00
C 68.00 44.00 67.50 44.04 67.00 44.00
C 65.24 43.87 64.49 44.61 63.00 45.00 Z"/>
</g>
<g fill="None" fill-opacity="0.0" stroke="#FEFAD3" stroke-opacity="1.00" stroke-width="0.3"><path d="
M 56.00 51.00 
C 61.72 48.64 60.75 56.04 65.75 59.24 C 70.75 62.45 71.46 56.04 73.74 50.74 C 76.03 45.45 67.55 45.35 63.00 45.00
C 62.06 45.24 60.37 44.87 60.00 45.00
C 57.71 45.82 57.47 49.22 56.00 51.00 Z"/>
</g>
<g fill="None" fill-opacity="0.0" stroke="#E29B82" stroke-opacity="1.00" stroke-width="0.3"><path d="
M 81.00 47.00 
C 80.18 46.96 79.72 46.29 79.00 46.00
C 79.46 46.27 81.57 47.69 82.00 48.00
C 82.28 47.93 83.74 45.40 84.00 45.00
C 83.72 45.30 81.47 47.02 81.00 47.00 Z"/>
</g>
<g fill="None" fill-opacity="0.0" stroke="#FEF571" stroke-opacity="1.00" stroke-width="0.3"><path d="
M 70.00 62.00 
C 75.54 64.34 80.66 66.91 87.00 67.00
C 88.72 64.73 87.73 61.66 88.00 59.00
C 87.97 58.02 88.11 56.98 88.00 56.00
C 86.34 52.25 80.59 49.46 77.75 51.75 C 74.92 54.05 73.25 60.99 70.00 62.00 Z"/>
</g>
<g fill="None" fill-opacity="0.0" stroke="#F4A03E" stroke-opacity="1.00" stroke-width="0.3"><path d="
M 193.00 51.00 
C 193.00 51.50 192.94 52.51 193.00 53.00
C 193.91 60.65 194.38 68.32 193.00 76.00
C 192.62 78.09 191.98 79.69 192.00 82.00
C 192.00 82.50 192.09 83.52 192.00 84.00
C 192.31 83.28 193.66 82.32 193.00 81.00
C 195.57 85.02 204.97 85.89 209.00 84.00
C 209.59 82.56 209.00 79.58 209.00 78.00
C 208.56 68.62 210.32 58.64 207.00 50.00
C 203.89 50.39 194.57 55.00 193.00 51.00
M 207.00 52.00 
C 208.60 62.09 208.69 73.22 206.00 83.00
C 203.27 80.72 199.37 78.65 196.00 81.00
C 196.00 71.67 196.00 62.33 196.00 53.00
C 199.59 55.64 203.39 52.47 207.00 52.00 Z"/>
</g>
<g fill="None" fill-opacity="0.0" stroke="#8E5643" stroke-opacity="1.00" stroke-width="0.3"><path d="
M 184.00 74.00 
C 183.04 74.12 181.97 74.00 181.00 74.00
C 181.95 74.15 183.45 74.95 185.00 75.00
C 187.00 75.06 189.00 74.95 191.00 75.00
C 188.23 67.56 188.76 59.46 191.00 52.00
C 188.97 51.31 187.70 51.93 186.00 51.00
C 185.71 54.70 185.50 73.81 184.00 74.00 Z"/>
</g>
<g fill="None" fill-opacity="0.0" stroke="#FCCD4D" stroke-opacity="1.00" stroke-width="0.3"><path d="
M 53.00 54.00 
C 53.00 54.00 52.35 53.77 52.00 54.00
C 51.26 54.85 51.36 55.10 50.00 55.00
C 50.36 54.62 50.03 58.81 50.00 59.00
C 51.71 55.16 52.50 59.89 52.00 62.00
C 58.98 62.87 63.14 68.07 71.00 65.00
C 72.73 71.58 80.33 78.12 86.00 75.00
C 86.49 74.58 87.37 74.11 88.00 74.00
C 84.84 70.24 89.37 67.64 90.00 65.00
C 89.49 63.63 90.91 60.07 90.00 59.00
C 89.51 59.07 88.31 59.24 88.00 59.00
C 87.73 61.66 88.72 64.73 87.00 67.00
C 80.66 66.91 75.54 64.34 70.00 62.00
C 63.84 62.23 59.78 56.26 56.00 52.00
C 55.09 52.53 53.77 53.22 53.00 54.00 Z"/>
</g>
<g fill="None" fill-opacity="0.0" stroke="#873415" stroke-opacity="1.00" stroke-width="0.3"><path d="
M 185.00 75.00 
C 175.13 79.62 183.58 93.93 180.00 100.00
C 182.79 102.19 185.37 99.21 188.00 101.00
C 188.13 100.54 188.12 99.47 188.00 99.00
C 186.68 93.92 181.30 91.34 183.00 85.00 C 184.70 78.66 190.69 80.63 193.00 76.00
C 194.38 68.32 193.91 60.65 193.00 53.00
C 192.95 52.93 191.19 52.07 191.00 52.00
C 188.76 59.46 188.23 67.56 191.00 75.00
C 189.00 74.95 187.00 75.06 185.00 75.00 Z"/>
</g>
<g fill="None" fill-opacity="0.0" stroke="#E6680C" stroke-opacity="1.00" stroke-width="0.3"><path d="
M 207.00 52.00 
C 203.39 52.47 199.59 55.64 196.00 53.00
C 196.00 62.33 196.00 71.67 196.00 81.00
C 199.37 78.65 203.27 80.72 206.00 83.00
C 208.69 73.22 208.60 62.09 207.00 52.00 Z"/>
</g>
<g fill="None" fill-opacity="0.0" stroke="#B93126" stroke-opacity="1.00" stroke-width="0.3"><path d="
M 0.00 58.00 
C 6.61 57.21 19.60 60.84 25.22 60.78 C 30.85 60.72 48.13 64.53 49.00 61.00
C 32.93 62.08 15.96 56.25 0.00 56.00
L 0.00 58.00 Z"/>
</g>
<g fill="None" fill-opacity="0.0" stroke="#F8A731" stroke-opacity="1.00" stroke-width="0.3"><path d="
M 50.00 59.00 
C 49.92 59.49 50.00 60.50 50.00 61.00
C 50.00 62.67 50.00 64.33 50.00 66.00
C 50.18 67.09 50.90 70.42 51.00 71.00
C 51.72 71.86 51.99 72.89 52.00 74.00
C 56.96 79.08 65.41 73.60 69.00 70.00
C 71.28 73.53 73.53 77.19 75.00 81.00
C 76.77 79.55 79.22 80.43 81.00 79.00
C 81.48 78.89 82.58 79.18 83.00 79.00
C 83.26 78.89 83.75 78.25 84.00 78.00
C 84.73 77.25 85.27 75.62 86.00 75.00
C 80.33 78.12 72.73 71.58 71.00 65.00
C 63.14 68.07 58.98 62.87 52.00 62.00
C 52.50 59.89 51.71 55.16 50.00 59.00 Z"/>
</g>
<g fill="None" fill-opacity="0.0" stroke="#DF3524" stroke-opacity="1.00" stroke-width="0.3"><path d="
M 0.00 82.00 
C 1.34 82.93 2.32 81.22 3.00 81.00
C 7.44 77.59 18.17 77.24 25.02 74.02 C 31.88 70.81 43.98 72.25 50.00 68.00
C 49.85 67.55 50.00 66.50 50.00 66.00
C 50.00 64.33 50.00 62.67 50.00 61.00
C 50.00 61.00 49.50 60.97 49.00 61.00
C 48.13 64.53 30.85 60.72 25.22 60.78 C 19.60 60.84 6.61 57.21 0.00 58.00
L 0.00 82.00 Z"/>
</g>
<g fill="None" fill-opacity="0.0" stroke="#DF8037" stroke-opacity="1.00" stroke-width="0.3"><path d="
M 88.00 74.00 
C 88.48 73.91 89.00 74.00 89.00 74.00
C 89.01 73.99 88.01 72.21 88.00 72.00
C 87.93 70.87 89.09 65.92 90.00 65.00
C 89.37 67.64 84.84 70.24 88.00 74.00 Z"/>
</g>
<g fill="None" fill-opacity="0.0" stroke="#B62720" stroke-opacity="1.00" stroke-width="0.3"><path d="
M 88.00 72.00 
C 90.09 70.10 96.45 76.74 100.23 77.77 C 104.01 78.81 107.98 81.65 113.23 83.77 C 118.48 85.89 118.79 86.58 126.08 89.92 C 133.36 93.27 143.74 98.38 151.08 101.92 C 158.41 105.47 157.65 105.75 165.00 107.00
C 163.75 103.20 165.68 96.22 167.93 90.93 C 170.17 85.63 167.88 77.52 173.00 75.00
C 159.47 73.56 144.40 72.46 131.00 71.00 C 117.60 69.54 101.43 68.43 91.00 66.00
C 90.77 65.95 90.09 65.25 90.00 65.00
C 89.09 65.92 87.93 70.87 88.00 72.00 Z"/>
</g>
<g fill="None" fill-opacity="0.0" stroke="#E77B3F" stroke-opacity="1.00" stroke-width="0.3"><path d="
M 50.00 68.00 
C 50.01 68.02 48.94 70.03 49.00 70.00
C 50.41 70.13 50.17 70.02 51.00 71.00
C 50.90 70.42 50.18 67.09 50.00 66.00
C 50.00 66.50 49.85 67.55 50.00 68.00 Z"/>
</g>
<g fill="None" fill-opacity="0.0" stroke="#8E2317" stroke-opacity="1.00" stroke-width="0.3"><path d="
M 88.00 72.00 
C 88.01 72.21 89.01 73.99 89.00 74.00
C 101.02 76.82 112.18 85.61 123.69 90.31 C 135.21 95.00 146.85 101.30 158.00 107.00
C 160.02 108.03 161.99 108.97 164.00 110.00
C 166.99 111.53 170.01 112.69 173.00 114.00
C 174.25 114.55 175.66 115.81 177.00 116.00
C 179.19 116.31 181.53 115.61 183.00 114.00
C 184.84 109.83 186.78 105.40 188.00 101.00
C 185.37 99.21 182.79 102.19 180.00 100.00
C 183.58 93.93 175.13 79.62 185.00 75.00
C 183.45 74.95 181.95 74.15 181.00 74.00
C 179.35 74.00 177.64 74.14 176.00 74.00
C 172.85 73.73 168.73 72.26 166.00 72.00
C 146.45 72.00 127.18 68.83 108.00 67.00
C 106.04 66.81 103.32 66.15 102.00 66.00
C 98.56 65.90 94.35 66.74 91.00 66.00
C 101.43 68.43 117.60 69.54 131.00 71.00 C 144.40 72.46 159.47 73.56 173.00 75.00
C 167.88 77.52 170.17 85.63 167.93 90.93 C 165.68 96.22 163.75 103.20 165.00 107.00
C 157.65 105.75 158.41 105.47 151.08 101.92 C 143.74 98.38 133.36 93.27 126.08 89.92 C 118.79 86.58 118.48 85.89 113.23 83.77 C 107.98 81.65 104.01 78.81 100.23 77.77 C 96.45 76.74 90.09 70.10 88.00 72.00 Z"/>
</g>
<g fill="None" fill-opacity="0.0" stroke="#F5A7A0" stroke-opacity="1.00" stroke-width="0.3"><path d="
M 108.00 67.00 
C 106.35 66.68 104.29 66.06 102.00 66.00
C 103.32 66.15 106.04 66.81 108.00 67.00 Z"/>
</g>
<g fill="None" fill-opacity="0.0" stroke="#B13023" stroke-opacity="1.00" stroke-width="0.3"><path d="
M 3.00 81.00 
C 9.98 78.72 18.02 76.61 25.22 75.22 C 32.43 73.84 41.63 69.34 49.00 70.00
C 48.94 70.03 50.01 68.02 50.00 68.00
C 43.98 72.25 31.88 70.81 25.02 74.02 C 18.17 77.24 7.44 77.59 3.00 81.00 Z"/>
</g>
<g fill="None" fill-opacity="0.0" stroke="#FEF0E1" stroke-opacity="1.00" stroke-width="0.3"><path d="
M 3.00 81.00 
C 2.32 81.22 1.34 82.93 0.00 82.00
L 0.00 110.00
C 16.38 97.35 36.37 88.65 52.00 75.00
C 51.81 74.59 52.00 74.00 52.00 74.00
C 51.99 72.89 51.72 71.86 51.00 71.00
C 50.17 70.02 50.41 70.13 49.00 70.00
C 41.63 69.34 32.43 73.84 25.22 75.22 C 18.02 76.61 9.98 78.72 3.00 81.00 Z"/>
</g>
<g fill="None" fill-opacity="0.0" stroke="#EE8031" stroke-opacity="1.00" stroke-width="0.3"><path d="
M 52.00 74.00 
C 52.00 74.00 51.81 74.59 52.00 75.00
C 52.12 75.26 52.75 75.75 53.00 76.00
C 54.36 77.39 56.57 79.03 58.00 80.00
C 59.97 81.33 60.77 81.40 63.00 82.00
C 65.41 82.64 69.62 84.11 72.00 84.00
C 73.43 83.94 76.37 83.11 78.00 83.00
C 78.19 82.99 78.75 82.25 79.00 82.00
C 79.49 81.49 80.48 79.21 81.00 79.00
C 79.22 80.43 76.77 79.55 75.00 81.00
C 73.53 77.19 71.28 73.53 69.00 70.00
C 65.41 73.60 56.96 79.08 52.00 74.00 Z"/>
</g>
<g fill="None" fill-opacity="0.0" stroke="#FBEEDF" stroke-opacity="1.00" stroke-width="0.3"><path d="
M 86.00 75.00 
C 85.27 75.62 84.73 77.25 84.00 78.00
C 87.63 80.21 90.13 84.13 93.00 87.00
C 96.25 90.25 99.79 93.79 103.00 97.00
C 109.28 103.28 116.24 109.26 122.00 116.00
C 124.27 118.65 126.93 121.27 129.00 124.00
L 147.00 124.00
C 150.25 120.86 152.73 107.73 158.00 107.00
C 146.85 101.30 135.21 95.00 123.69 90.31 C 112.18 85.61 101.02 76.82 89.00 74.00
C 89.00 74.00 88.48 73.91 88.00 74.00
C 87.37 74.11 86.49 74.58 86.00 75.00 Z"/>
</g>
<g fill="None" fill-opacity="0.0" stroke="#A82D20" stroke-opacity="1.00" stroke-width="0.3"><path d="
M 0.00 110.00 
L 0.00 112.00
C 5.30 107.75 12.11 104.53 17.23 100.23 C 22.35 95.93 30.74 92.86 35.23 88.23 C 39.72 83.60 50.29 81.62 53.00 76.00
C 52.75 75.75 52.12 75.26 52.00 75.00
C 36.37 88.65 16.38 97.35 0.00 110.00 Z"/>
</g>
<g fill="None" fill-opacity="0.0" stroke="#D42E23" stroke-opacity="1.00" stroke-width="0.3"><path d="
M 0.00 112.00 
L 0.00 124.00
L 26.00 124.00
C 35.42 109.02 46.39 92.79 58.00 80.00
C 56.57 79.03 54.36 77.39 53.00 76.00
C 50.29 81.62 39.72 83.60 35.23 88.23 C 30.74 92.86 22.35 95.93 17.23 100.23 C 12.11 104.53 5.30 107.75 0.00 112.00 Z"/>
</g>
<g fill="None" fill-opacity="0.0" stroke="#9A4811" stroke-opacity="1.00" stroke-width="0.3"><path d="
M 188.00 99.00 
C 188.22 98.17 188.89 97.33 189.00 96.00
C 189.49 90.25 190.53 86.86 192.00 82.00
C 191.98 79.69 192.62 78.09 193.00 76.00
C 190.69 80.63 184.70 78.66 183.00 85.00 C 181.30 91.34 186.68 93.92 188.00 99.00 Z"/>
</g>
<g fill="None" fill-opacity="0.0" stroke="#7C160E" stroke-opacity="1.00" stroke-width="0.3"><path d="
M 83.00 79.00 
C 92.33 82.21 97.13 95.35 104.75 101.25 C 112.37 107.14 119.97 117.35 127.00 124.00
L 129.00 124.00
C 126.93 121.27 124.27 118.65 122.00 116.00
C 115.75 109.75 109.20 103.20 103.00 97.00
C 99.75 93.75 96.21 90.21 93.00 87.00
C 90.41 84.41 86.84 80.02 84.00 78.00
C 83.75 78.25 83.26 78.89 83.00 79.00 Z"/>
</g>
<g fill="None" fill-opacity="0.0" stroke="#BC675D" stroke-opacity="1.00" stroke-width="0.3"><path d="
M 93.00 87.00 
C 90.13 84.13 87.63 80.21 84.00 78.00
C 86.84 80.02 90.41 84.41 93.00 87.00 Z"/>
</g>
<g fill="None" fill-opacity="0.0" stroke="#BD2821" stroke-opacity="1.00" stroke-width="0.3"><path d="
M 79.00 82.00 
C 88.13 93.59 88.98 111.99 98.00 124.00
L 127.00 124.00
C 119.97 117.35 112.37 107.14 104.75 101.25 C 97.13 95.35 92.33 82.21 83.00 79.00
C 82.58 79.18 81.48 78.89 81.00 79.00
C 80.48 79.21 79.49 81.49 79.00 82.00 Z"/>
</g>
<g fill="None" fill-opacity="0.0" stroke="#9D201A" stroke-opacity="1.00" stroke-width="0.3"><path d="
M 26.00 124.00 
L 27.00 124.00
C 36.94 109.03 48.31 95.07 58.00 80.00
C 46.39 92.79 35.42 109.02 26.00 124.00 Z"/>
</g>
<g fill="None" fill-opacity="0.0" stroke="#FEEEE1" stroke-opacity="1.00" stroke-width="0.3"><path d="
M 27.00 124.00 
L 52.00 124.00
C 53.41 110.50 62.44 97.61 63.00 84.00
C 63.02 83.50 63.23 82.15 63.00 82.00
C 60.77 81.40 59.97 81.33 58.00 80.00
C 48.31 95.07 36.94 109.03 27.00 124.00 Z"/>
</g>
<g fill="None" fill-opacity="0.0" stroke="#FAD78F" stroke-opacity="1.00" stroke-width="0.3"><path d="
M 192.00 84.00 
C 191.63 85.95 191.42 87.99 191.00 90.00
C 191.04 91.33 190.97 92.67 191.00 94.00
C 194.79 96.15 203.79 94.83 206.00 96.00
C 207.91 92.49 207.83 88.01 209.00 84.00
C 204.97 85.89 195.57 85.02 193.00 81.00
C 193.66 82.32 192.31 83.28 192.00 84.00
M 203.00 86.00 
C 207.29 88.95 201.87 98.18 196.78 94.22 C 191.69 90.26 198.35 82.80 203.00 86.00 Z"/>
</g>
<g fill="None" fill-opacity="0.0" stroke="#DA5B3B" stroke-opacity="1.00" stroke-width="0.3"><path d="
M 63.00 84.00 
C 64.10 82.63 64.43 83.96 65.00 84.00
C 66.40 84.09 68.72 83.48 70.00 84.00
C 70.25 84.10 71.94 85.83 72.00 86.00
C 72.00 85.50 71.76 84.31 72.00 84.00
C 69.62 84.11 65.41 82.64 63.00 82.00
C 63.23 82.15 63.02 83.50 63.00 84.00 Z"/>
</g>
<g fill="None" fill-opacity="0.0" stroke="#FDEEE0" stroke-opacity="1.00" stroke-width="0.3"><path d="
M 72.00 84.00 
C 71.76 84.31 72.00 85.50 72.00 86.00
C 72.00 98.92 74.33 111.01 74.00 124.00
L 96.00 124.00
C 94.13 117.04 88.78 110.86 87.08 103.92 C 85.37 96.99 78.22 90.19 78.00 83.00
C 76.37 83.11 73.43 83.94 72.00 84.00 Z"/>
</g>
<g fill="None" fill-opacity="0.0" stroke="#8E231B" stroke-opacity="1.00" stroke-width="0.3"><path d="
M 78.00 83.00 
C 78.22 90.19 85.37 96.99 87.08 103.92 C 88.78 110.86 94.13 117.04 96.00 124.00
L 98.00 124.00
C 88.98 111.99 88.13 93.59 79.00 82.00
C 78.75 82.25 78.19 82.99 78.00 83.00 Z"/>
</g>
<g fill="None" fill-opacity="0.0" stroke="#BD7327" stroke-opacity="1.00" stroke-width="0.3"><path d="
M 189.00 96.00 
C 189.36 94.52 190.70 91.43 191.00 90.00
C 191.42 87.99 191.63 85.95 192.00 84.00
C 192.09 83.52 192.00 82.50 192.00 82.00
C 190.53 86.86 189.49 90.25 189.00 96.00 Z"/>
</g>
<g fill="None" fill-opacity="0.0" stroke="#9B281F" stroke-opacity="1.00" stroke-width="0.3"><path d="
M 63.00 84.00 
C 62.44 97.61 53.41 110.50 52.00 124.00
L 54.00 124.00
C 54.12 119.56 56.87 114.60 57.33 110.33 C 57.79 106.05 61.16 101.06 60.98 96.98 C 60.79 92.89 66.12 87.46 65.00 84.00
C 64.43 83.96 64.10 82.63 63.00 84.00 Z"/>
</g>
<g fill="None" fill-opacity="0.0" stroke="#C52822" stroke-opacity="1.00" stroke-width="0.3"><path d="
M 54.00 124.00 
L 73.00 124.00
C 72.22 110.62 70.93 97.36 70.00 84.00
C 68.72 83.48 66.40 84.09 65.00 84.00
C 66.12 87.46 60.79 92.89 60.98 96.98 C 61.16 101.06 57.79 106.05 57.33 110.33 C 56.87 114.60 54.12 119.56 54.00 124.00 Z"/>
</g>
<g fill="None" fill-opacity="0.0" stroke="#951E16" stroke-opacity="1.00" stroke-width="0.3"><path d="
M 73.00 124.00 
L 74.00 124.00
C 74.33 111.01 72.00 98.92 72.00 86.00
C 71.94 85.83 70.25 84.10 70.00 84.00
C 70.93 97.36 72.22 110.62 73.00 124.00 Z"/>
</g>
<g fill="None" fill-opacity="0.0" stroke="#FEF8DD" stroke-opacity="1.00" stroke-width="0.3"><path d="
M 203.00 86.00 
C 198.35 82.80 191.69 90.26 196.78 94.22 C 201.87 98.18 207.29 88.95 203.00 86.00 Z"/>
</g>
<g fill="None" fill-opacity="0.0" stroke="#DB928A" stroke-opacity="1.00" stroke-width="0.3"><path d="
M 103.00 97.00 
C 99.79 93.79 96.25 90.25 93.00 87.00
C 96.21 90.21 99.75 93.75 103.00 97.00 Z"/>
</g>
<g fill="None" fill-opacity="0.0" stroke="#F8B749" stroke-opacity="1.00" stroke-width="0.3"><path d="
M 189.00 96.00 
C 188.89 97.33 188.22 98.17 188.00 99.00
C 188.12 99.47 188.13 100.54 188.00 101.00
C 186.78 105.40 184.84 109.83 183.00 114.00
C 181.48 117.44 179.55 120.59 178.00 124.00
L 197.00 124.00
C 200.81 115.29 203.11 106.05 206.00 97.00
C 206.00 97.00 205.79 96.39 206.00 96.00
C 203.79 94.83 194.79 96.15 191.00 94.00
C 190.97 92.67 191.04 91.33 191.00 90.00
C 190.70 91.43 189.36 94.52 189.00 96.00
M 197.00 117.00 
C 193.81 123.25 189.34 119.62 184.00 120.00
C 183.86 118.19 184.44 115.92 186.00 115.00
C 188.21 108.79 189.89 102.29 192.00 96.00
C 195.45 96.96 199.41 99.55 203.00 97.00
C 202.32 104.02 199.61 110.52 197.00 117.00 Z"/>
</g>
<g fill="None" fill-opacity="0.0" stroke="#D8570F" stroke-opacity="1.00" stroke-width="0.3"><path d="
M 186.00 115.00 
C 188.43 114.04 194.27 119.12 197.00 117.00
C 199.61 110.52 202.32 104.02 203.00 97.00
C 199.41 99.55 195.45 96.96 192.00 96.00
C 189.89 102.29 188.21 108.79 186.00 115.00 Z"/>
</g>
<g fill="None" fill-opacity="0.0" stroke="#FDCFC5" stroke-opacity="1.00" stroke-width="0.3"><path d="
M 122.00 116.00 
C 116.24 109.26 109.28 103.28 103.00 97.00
C 109.20 103.20 115.75 109.75 122.00 116.00 Z"/>
</g>
<g fill="None" fill-opacity="0.0" stroke="#FEF7D0" stroke-opacity="1.00" stroke-width="0.3"><path d="
M 197.00 124.00 
L 199.00 124.00
C 198.10 116.75 211.32 103.82 206.00 97.00
C 203.11 106.05 200.81 115.29 197.00 124.00 Z"/>
</g>
<g fill="None" fill-opacity="0.0" stroke="#DBC4B3" stroke-opacity="1.00" stroke-width="0.3"><path d="
M 147.00 124.00 
L 158.00 124.00
C 158.40 119.83 166.62 114.05 164.00 110.00
C 161.99 108.97 160.02 108.03 158.00 107.00
C 152.73 107.73 150.25 120.86 147.00 124.00 Z"/>
</g>
<g fill="None" fill-opacity="0.0" stroke="#B99683" stroke-opacity="1.00" stroke-width="0.3"><path d="
M 158.00 124.00 
L 167.00 124.00
C 168.88 120.55 170.87 117.28 173.00 114.00
C 170.01 112.69 166.99 111.53 164.00 110.00
C 166.62 114.05 158.40 119.83 158.00 124.00 Z"/>
</g>
<g fill="None" fill-opacity="0.0" stroke="#9F6E4C" stroke-opacity="1.00" stroke-width="0.3"><path d="
M 167.00 124.00 
L 176.00 124.00
C 176.41 121.51 175.08 118.04 177.00 116.00
C 175.66 115.81 174.25 114.55 173.00 114.00
C 170.87 117.28 168.88 120.55 167.00 124.00 Z"/>
</g>
<g fill="None" fill-opacity="0.0" stroke="#934F19" stroke-opacity="1.00" stroke-width="0.3"><path d="
M 177.00 116.00 
C 175.08 118.04 176.41 121.51 176.00 124.00
L 178.00 124.00
C 179.55 120.59 181.48 117.44 183.00 114.00
C 181.53 115.61 179.19 116.31 177.00 116.00 Z"/>
</g>
<g fill="None" fill-opacity="0.0" stroke="#F2880A" stroke-opacity="1.00" stroke-width="0.3"><path d="
M 197.00 117.00 
C 194.27 119.12 188.43 114.04 186.00 115.00
C 184.44 115.92 183.86 118.19 184.00 120.00
C 189.34 119.62 193.81 123.25 197.00 117.00 Z"/>
</g>
<g fill="#E9A233" fill-opacity="1.00" stroke="None">
<path d="
M 0.00 8.00 
C 4.33 8.00 8.67 8.00 13.00 8.00
C 12.45 6.54 10.60 5.82 11.00 4.00
C 9.91 2.87 8.86 1.26 8.00 0.00
L 0.00 0.00
L 0.00 8.00 Z"/>
</g>
<g fill="#FBD093" fill-opacity="1.00" stroke="None">
<path d="
M 11.00 4.00 
C 12.50 5.56 14.48 7.54 16.00 9.00
C 17.11 10.07 19.00 10.93 20.00 12.00
C 16.74 7.70 12.15 4.31 9.00 0.00
L 8.00 0.00
C 8.86 1.26 9.91 2.87 11.00 4.00 Z"/>
</g>
<g fill="#FEF3E2" fill-opacity="1.00" stroke="None">
<path d="
M 20.00 12.00 
C 20.68 12.89 21.29 14.22 22.00 15.00
C 27.98 21.52 35.25 27.27 41.00 34.00
C 46.03 39.03 52.95 43.71 56.00 50.00
C 54.75 50.30 54.29 51.83 53.00 52.00
C 52.63 52.53 52.38 53.57 52.00 54.00
C 52.35 53.77 53.00 54.00 53.00 54.00
C 53.86 52.83 55.20 51.97 56.00 51.00
C 57.47 49.22 57.71 45.82 60.00 45.00
C 54.54 40.40 54.95 28.71 50.23 22.77 C 45.51 16.83 44.59 6.29 40.00 0.00
L 9.00 0.00
C 12.15 4.31 16.74 7.70 20.00 12.00 Z"/>
</g>
<g fill="#D22F24" fill-opacity="1.00" stroke="None">
<path d="
M 60.00 45.00 
C 60.37 44.87 62.06 45.24 63.00 45.00
C 64.49 44.61 65.24 43.87 67.00 44.00
C 65.67 29.33 64.42 14.89 64.00 0.00
L 40.00 0.00
C 44.59 6.29 45.51 16.83 50.23 22.77 C 54.95 28.71 54.54 40.40 60.00 45.00 Z"/>
</g>
<g fill="#B12E03" fill-opacity="1.00" stroke="None">
<path d="
M 67.00 44.00 
C 67.50 44.04 68.00 44.00 68.00 44.00
C 69.34 29.14 64.45 15.00 66.00 0.00
L 64.00 0.00
C 64.42 14.89 65.67 29.33 67.00 44.00 Z"/>
</g>
<g fill="#FEF313" fill-opacity="1.00" stroke="None">
<path d="
M 68.00 44.00 
C 70.38 45.85 72.14 43.89 74.00 44.00
C 79.09 39.86 77.27 28.57 80.78 22.78 C 84.28 16.98 83.27 6.06 87.00 0.00
L 66.00 0.00
C 64.45 15.00 69.34 29.14 68.00 44.00 Z"/>
</g>
<g fill="#A12F01" fill-opacity="1.00" stroke="None">
<path d="
M 74.00 44.00 
C 74.38 44.02 76.66 44.83 77.00 45.00
C 73.12 40.05 82.02 29.25 81.93 22.93 C 81.84 16.60 88.19 6.84 88.00 0.00
L 87.00 0.00
C 83.27 6.06 84.28 16.98 80.78 22.78 C 77.27 28.57 79.09 39.86 74.00 44.00 Z"/>
</g>
<g fill="#C42822" fill-opacity="1.00" stroke="None">
<path d="
M 77.00 45.00 
C 77.59 45.29 78.20 45.68 79.00 46.00
C 79.72 46.29 80.18 46.96 81.00 47.00
C 84.37 46.18 85.94 37.58 89.25 35.25 C 92.56 32.92 94.24 26.45 97.30 23.30 C 100.37 20.16 103.30 15.55 105.77 11.77 C 108.24 7.99 111.48 3.84 114.00 0.00
L 88.00 0.00
C 88.19 6.84 81.84 16.60 81.93 22.93 C 82.02 29.25 73.12 40.05 77.00 45.00 Z"/>
</g>
<g fill="#8D231B" fill-opacity="1.00" stroke="None">
<path d="
M 81.00 47.00 
C 81.47 47.02 83.72 45.30 84.00 45.00
C 94.02 29.56 105.67 15.23 116.00 0.00
L 114.00 0.00
C 111.48 3.84 108.24 7.99 105.77 11.77 C 103.30 15.55 100.37 20.16 97.30 23.30 C 94.24 26.45 92.56 32.92 89.25 35.25 C 85.94 37.58 84.37 46.18 81.00 47.00 Z"/>
</g>
<g fill="#FCEFE0" fill-opacity="1.00" stroke="None">
<path d="
M 84.00 45.00 
C 83.74 45.40 82.28 47.93 82.00 48.00
C 83.33 48.96 84.64 50.94 86.00 52.00
C 88.40 45.51 100.85 44.07 105.70 38.70 C 110.55 33.32 119.79 29.44 125.75 24.75 C 131.70 20.05 139.51 15.19 146.00 11.00
C 146.74 10.12 147.49 9.00 148.00 8.00
C 145.10 6.18 142.81 3.17 142.00 0.00
L 116.00 0.00
C 105.67 15.23 94.02 29.56 84.00 45.00 Z"/>
</g>
<g fill="#E3C6B5" fill-opacity="1.00" stroke="None">
<path d="
M 146.00 11.00 
C 150.45 8.13 156.07 5.10 160.00 2.00
C 160.47 1.63 160.80 0.52 161.00 0.00
L 142.00 0.00
C 142.81 3.17 145.10 6.18 148.00 8.00
C 147.49 9.00 146.74 10.12 146.00 11.00 Z"/>
</g>
<g fill="#923415" fill-opacity="1.00" stroke="None">
<path d="
M 160.00 2.00 
C 158.71 4.97 170.88 15.25 170.00 21.00
C 172.11 19.13 173.76 22.78 176.00 23.00
C 177.21 23.08 185.23 18.25 185.00 19.00
C 184.62 18.04 184.46 17.01 184.00 16.00
C 181.79 13.78 177.86 17.33 175.00 16.00
C 172.07 10.96 164.11 7.18 168.00 0.00
L 161.00 0.00
C 160.80 0.52 160.47 1.63 160.00 2.00 Z"/>
</g>
<g fill="#A24E17" fill-opacity="1.00" stroke="None">
<path d="
M 184.00 16.00 
C 183.22 14.29 182.68 12.68 182.00 11.00
C 179.48 7.83 172.48 6.23 175.00 0.00
L 168.00 0.00
C 164.11 7.18 172.07 10.96 175.00 16.00
C 177.86 17.33 181.79 13.78 184.00 16.00 Z"/>
</g>
<g fill="#CB8438" fill-opacity="1.00" stroke="None">
<path d="
M 182.00 11.00 
C 181.78 10.46 181.31 9.45 181.00 9.00
C 179.06 6.17 176.68 3.75 177.00 0.00
L 175.00 0.00
C 172.48 6.23 179.48 7.83 182.00 11.00 Z"/>
</g>
<g fill="#FCE89F" fill-opacity="1.00" stroke="None">
<path d="
M 181.00 9.00 
C 180.99 9.02 187.50 9.48 188.69 7.69 C 189.89 5.91 193.65 2.04 196.00 3.00
C 195.54 2.01 194.76 1.22 195.00 0.00
L 189.00 0.00
C 190.06 6.40 180.26 6.27 181.00 0.00
L 177.00 0.00
C 176.68 3.75 179.06 6.17 181.00 9.00 Z"/>
</g>
<g fill="#FEFDF2" fill-opacity="1.00" stroke="None">
<path d="
M 189.00 0.00 
L 181.00 0.00
C 180.26 6.27 190.06 6.40 189.00 0.00 Z"/>
</g>
<g fill="#FEF9D8" fill-opacity="1.00" stroke="None">
<path d="
M 196.00 3.00 
C 206.92 26.66 211.55 51.71 209.00 78.00
C 209.00 79.58 209.59 82.56 209.00 84.00
C 217.19 55.87 207.05 24.44 197.00 0.00
L 195.00 0.00
C 194.76 1.22 195.54 2.01 196.00 3.00 Z"/>
</g>
<g fill="#FEFEFE" fill-opacity="1.00" stroke="None">
<path d="
M 209.00 84.00 
C 207.83 88.01 207.91 92.49 206.00 96.00
C 205.79 96.39 206.00 97.00 206.00 97.00
C 211.32 103.82 198.10 116.75 199.00 124.00
L 244.00 124.00
L 244.00 0.00
L 197.00 0.00
C 207.05 24.44 217.19 55.87 209.00 84.00 Z"/>
</g>
<g fill="#9C241B" fill-opacity="1.00" stroke="None">
<path d="
M 146.00 11.00 
C 139.51 15.19 131.70 20.05 125.75 24.75 C 119.79 29.44 110.55 33.32 105.70 38.70 C 100.85 44.07 88.40 45.51 86.00 52.00
C 86.27 52.21 86.76 52.74 87.00 53.00
C 98.90 48.75 107.55 36.57 119.08 31.08 C 130.61 25.59 140.27 14.37 152.00 9.00
C 154.95 13.26 146.58 16.90 155.00 16.00
C 153.77 24.12 161.43 29.58 157.00 38.00
C 158.59 39.87 161.73 36.22 163.00 39.00
C 168.30 37.58 173.56 36.02 179.00 35.00
C 178.83 30.25 175.60 27.75 176.00 23.00
C 173.76 22.78 172.11 19.13 170.00 21.00
C 170.88 15.25 158.71 4.97 160.00 2.00
C 156.07 5.10 150.45 8.13 146.00 11.00 Z"/>
</g>
<g fill="#F8BD53" fill-opacity="1.00" stroke="None">
<path d="
M 181.00 9.00 
C 181.31 9.45 181.78 10.46 182.00 11.00
C 182.68 12.68 183.22 14.29 184.00 16.00
C 184.46 17.01 184.62 18.04 185.00 19.00
C 186.69 23.27 187.37 27.84 189.00 32.00
C 189.18 32.45 189.74 33.30 190.00 34.00
C 192.28 36.70 192.45 29.14 190.69 27.31 C 188.94 25.47 189.56 19.49 189.00 17.00
C 192.25 16.62 195.03 15.07 198.00 14.00
C 200.10 21.34 205.28 27.72 204.00 36.00
C 194.38 30.85 188.70 42.11 193.00 50.00
C 193.16 50.44 193.00 51.00 193.00 51.00
C 194.57 55.00 203.89 50.39 207.00 50.00
C 210.32 58.64 208.56 68.62 209.00 78.00
C 211.55 51.71 206.92 26.66 196.00 3.00
C 193.65 2.04 189.89 5.91 188.69 7.69 C 187.50 9.48 180.99 9.02 181.00 9.00
M 203.00 39.00 
C 209.12 41.40 204.92 52.64 197.78 49.22 C 190.64 45.80 195.94 36.23 203.00 39.00 Z"/>
</g>
<g fill="#E7882F" fill-opacity="1.00" stroke="None">
<path d="
M 0.00 8.00 
L 0.00 13.00
C 5.60 16.67 12.07 8.65 16.00 9.00
C 14.48 7.54 12.50 5.56 11.00 4.00
C 10.60 5.82 12.45 6.54 13.00 8.00
C 8.67 8.00 4.33 8.00 0.00 8.00 Z"/>
</g>
<g fill="#E86D2C" fill-opacity="1.00" stroke="None">
<path d="
M 0.00 13.00 
L 0.00 23.00
C 8.30 26.96 16.58 15.50 23.00 18.00
C 22.26 16.97 22.48 16.03 22.00 15.00
C 21.29 14.22 20.68 12.89 20.00 12.00
C 19.00 10.93 17.11 10.07 16.00 9.00
C 12.07 8.65 5.60 16.67 0.00 13.00 Z"/>
</g>
<g fill="#B92820" fill-opacity="1.00" stroke="None">
<path d="
M 87.00 53.00 
C 87.79 53.85 87.88 54.90 88.00 56.00
C 88.11 56.98 87.97 58.02 88.00 59.00
C 88.31 59.24 89.51 59.07 90.00 59.00
C 91.58 58.78 93.41 58.41 95.00 58.00
C 104.56 53.79 116.58 50.93 128.02 48.02 C 139.47 45.12 151.52 42.07 163.00 39.00
C 161.73 36.22 158.59 39.87 157.00 38.00
C 161.43 29.58 153.77 24.12 155.00 16.00
C 146.58 16.90 154.95 13.26 152.00 9.00
C 140.27 14.37 130.61 25.59 119.08 31.08 C 107.55 36.57 98.90 48.75 87.00 53.00 Z"/>
</g>
<g fill="#F68A17" fill-opacity="1.00" stroke="None">
<path d="
M 190.00 34.00 
C 191.63 38.46 189.04 46.97 193.00 50.00
C 188.70 42.11 194.38 30.85 204.00 36.00
C 205.28 27.72 200.10 21.34 198.00 14.00
C 195.03 15.07 192.25 16.62 189.00 17.00
C 189.56 19.49 188.94 25.47 190.69 27.31 C 192.45 29.14 192.28 36.70 190.00 34.00 Z"/>
</g>
<g fill="#AF3020" fill-opacity="1.00" stroke="None">
<path d="
M 23.00 18.00 
C 25.36 21.28 30.12 25.12 33.00 28.00
C 39.75 34.75 47.11 41.48 54.00 48.00
C 51.29 57.56 43.43 49.16 37.77 47.23 C 32.11 45.30 24.15 39.79 19.00 40.00
C 23.81 42.25 29.13 46.53 34.23 47.77 C 39.33 49.01 44.96 54.63 50.00 55.00
C 51.36 55.10 51.26 54.85 52.00 54.00
C 52.38 53.57 52.63 52.53 53.00 52.00
C 56.88 46.54 44.88 38.54 41.00 34.00
C 35.25 27.27 27.98 21.52 22.00 15.00
C 22.48 16.03 22.26 16.97 23.00 18.00 Z"/>
</g>
<g fill="#E65329" fill-opacity="1.00" stroke="None">
<path d="
M 0.00 23.00 
L 0.00 30.00
C 8.32 33.36 15.46 36.87 22.00 37.00
C 23.10 32.01 29.16 29.18 33.00 28.00
C 30.12 25.12 25.36 21.28 23.00 18.00
C 16.58 15.50 8.30 26.96 0.00 23.00 Z"/>
</g>
<g fill="#822113" fill-opacity="1.00" stroke="None">
<path d="
M 176.00 23.00 
C 175.60 27.75 178.83 30.25 179.00 35.00
C 173.56 36.02 168.30 37.58 163.00 39.00
C 151.52 42.07 139.47 45.12 128.02 48.02 C 116.58 50.93 104.56 53.79 95.00 58.00
C 115.68 52.73 136.28 47.21 157.00 42.00
C 160.67 41.08 164.33 39.94 168.00 39.00
C 169.33 38.66 170.67 38.31 172.00 38.00
C 174.32 37.46 176.65 37.55 179.00 37.00
C 180.12 36.74 182.53 36.38 184.00 36.00
C 185.12 35.71 188.98 32.00 189.00 32.00
C 187.37 27.84 186.69 23.27 185.00 19.00
C 185.23 18.25 177.21 23.08 176.00 23.00 Z"/>
</g>
<g fill="#DB3325" fill-opacity="1.00" stroke="None">
<path d="
M 0.00 30.00 
L 0.00 31.00
C 6.20 34.43 12.64 37.03 19.00 40.00
C 24.15 39.79 32.11 45.30 37.77 47.23 C 43.43 49.16 51.29 57.56 54.00 48.00
C 47.11 41.48 39.75 34.75 33.00 28.00
C 29.16 29.18 23.10 32.01 22.00 37.00
C 15.46 36.87 8.32 33.36 0.00 30.00 Z"/>
</g>
<g fill="#FEF0E1" fill-opacity="1.00" stroke="None">
<path d="
M 0.00 56.00 
C 15.96 56.25 32.93 62.08 49.00 61.00
C 49.50 60.97 50.00 61.00 50.00 61.00
C 50.00 60.50 49.92 59.49 50.00 59.00
C 50.03 58.81 50.36 54.62 50.00 55.00
C 44.96 54.63 39.33 49.01 34.23 47.77 C 29.13 46.53 23.81 42.25 19.00 40.00
C 12.64 37.03 6.20 34.43 0.00 31.00
L 0.00 56.00 Z"/>
</g>
<g fill="#A15A30" fill-opacity="1.00" stroke="None">
<path d="
M 184.00 36.00 
C 182.19 38.86 186.36 46.44 186.00 51.00
C 187.70 51.93 188.97 51.31 191.00 52.00
C 191.19 52.07 192.95 52.93 193.00 53.00
C 192.94 52.51 193.00 51.50 193.00 51.00
C 193.00 51.00 193.16 50.44 193.00 50.00
C 189.04 46.97 191.63 38.46 190.00 34.00
C 189.74 33.30 189.18 32.45 189.00 32.00
C 188.98 32.00 185.12 35.71 184.00 36.00 Z"/>
</g>
<g fill="#DA7870" fill-opacity="1.00" stroke="None">
<path d="
M 53.00 52.00 
C 54.29 51.83 54.75 50.30 56.00 50.00
C 52.95 43.71 46.03 39.03 41.00 34.00
C 44.88 38.54 56.88 46.54 53.00 52.00 Z"/>
</g>
<g fill="#A27662" fill-opacity="1.00" stroke="None">
<path d="
M 179.00 37.00 
C 177.90 38.64 182.34 44.99 181.98 48.02 C 181.61 51.06 181.90 58.78 182.00 62.00 C 182.10 65.22 180.47 72.93 184.00 74.00
C 185.50 73.81 185.71 54.70 186.00 51.00
C 186.36 46.44 182.19 38.86 184.00 36.00
C 182.53 36.38 180.12 36.74 179.00 37.00 Z"/>
</g>
<g fill="#B89484" fill-opacity="1.00" stroke="None">
<path d="
M 172.00 38.00 
C 172.39 38.04 173.95 39.87 175.00 39.00
C 176.23 49.96 178.85 64.46 176.00 74.00
C 177.64 74.14 179.35 74.00 181.00 74.00
C 181.97 74.00 183.04 74.12 184.00 74.00
C 180.47 72.93 182.10 65.22 182.00 62.00 C 181.90 58.78 181.61 51.06 181.98 48.02 C 182.34 44.99 177.90 38.64 179.00 37.00
C 176.65 37.55 174.32 37.46 172.00 38.00 Z"/>
</g>
<g fill="#D0B4A4" fill-opacity="1.00" stroke="None">
<path d="
M 168.00 39.00 
C 172.22 40.43 170.53 48.80 171.93 53.07 C 173.32 57.34 171.03 67.22 172.00 72.00
C 170.67 72.00 169.33 72.00 168.00 72.00
C 167.51 71.93 166.50 72.00 166.00 72.00
C 168.73 72.26 172.85 73.73 176.00 74.00
C 178.85 64.46 176.23 49.96 175.00 39.00
C 173.95 39.87 172.39 38.04 172.00 38.00
C 170.67 38.31 169.33 38.66 168.00 39.00 Z"/>
</g>
<g fill="#E3CFBE" fill-opacity="1.00" stroke="None">
<path d="
M 157.00 42.00 
C 158.12 41.93 161.44 44.34 163.00 42.00
C 164.82 50.76 165.37 61.12 165.00 71.00
C 166.00 71.11 167.73 70.53 168.00 72.00
C 169.33 72.00 170.67 72.00 172.00 72.00
C 171.03 67.22 173.32 57.34 171.93 53.07 C 170.53 48.80 172.22 40.43 168.00 39.00
C 164.33 39.94 160.67 41.08 157.00 42.00 Z"/>
</g>
<g fill="#FEEFB7" fill-opacity="1.00" stroke="None">
<path d="
M 203.00 39.00 
C 195.94 36.23 190.64 45.80 197.78 49.22 C 204.92 52.64 209.12 41.40 203.00 39.00
M 202.00 41.00 
C 206.29 42.76 203.17 50.21 199.00 48.00 C 194.82 45.78 197.48 39.15 202.00 41.00 Z"/>
</g>
<g fill="#FEFCED" fill-opacity="1.00" stroke="None">
<path d="
M 202.00 41.00 
C 197.48 39.15 194.82 45.78 199.00 48.00 C 203.17 50.21 206.29 42.76 202.00 41.00 Z"/>
</g>
<g fill="#FBEDDE" fill-opacity="1.00" stroke="None">
<path d="
M 95.00 58.00 
C 93.41 58.41 91.58 58.78 90.00 59.00
C 90.91 60.07 89.49 63.63 90.00 65.00
C 90.09 65.25 90.77 65.95 91.00 66.00
C 94.35 66.74 98.56 65.90 102.00 66.00
C 104.29 66.06 106.35 66.68 108.00 67.00
C 127.18 68.83 146.45 72.00 166.00 72.00
C 166.50 72.00 167.51 71.93 168.00 72.00
C 167.73 70.53 166.00 71.11 165.00 71.00
C 165.37 61.12 164.82 50.76 163.00 42.00
C 161.44 44.34 158.12 41.93 157.00 42.00
C 136.28 47.21 115.68 52.73 95.00 58.00 Z"/>
</g>
<g fill="#FDEFA5" fill-opacity="1.00" stroke="None">
<path d="
M 63.00 45.00 
C 67.55 45.35 76.03 45.45 73.74 50.74 C 71.46 56.04 70.75 62.45 65.75 59.24 C 60.75 56.04 61.72 48.64 56.00 51.00
C 55.20 51.97 53.86 52.83 53.00 54.00
C 53.77 53.22 55.09 52.53 56.00 52.00
C 59.78 56.26 63.84 62.23 70.00 62.00
C 73.25 60.99 74.92 54.05 77.75 51.75 C 80.59 49.46 86.34 52.25 88.00 56.00
C 87.88 54.90 87.79 53.85 87.00 53.00
C 86.76 52.74 86.27 52.21 86.00 52.00
C 84.64 50.94 83.33 48.96 82.00 48.00
C 81.57 47.69 79.46 46.27 79.00 46.00
C 78.20 45.68 77.59 45.29 77.00 45.00
C 76.66 44.83 74.38 44.02 74.00 44.00
C 72.14 43.89 70.38 45.85 68.00 44.00
C 68.00 44.00 67.50 44.04 67.00 44.00
C 65.24 43.87 64.49 44.61 63.00 45.00 Z"/>
</g>
<g fill="#FEFAD3" fill-opacity="1.00" stroke="None">
<path d="
M 56.00 51.00 
C 61.72 48.64 60.75 56.04 65.75 59.24 C 70.75 62.45 71.46 56.04 73.74 50.74 C 76.03 45.45 67.55 45.35 63.00 45.00
C 62.06 45.24 60.37 44.87 60.00 45.00
C 57.71 45.82 57.47 49.22 56.00 51.00 Z"/>
</g>
<g fill="#E29B82" fill-opacity="1.00" stroke="None">
<path d="
M 81.00 47.00 
C 80.18 46.96 79.72 46.29 79.00 46.00
C 79.46 46.27 81.57 47.69 82.00 48.00
C 82.28 47.93 83.74 45.40 84.00 45.00
C 83.72 45.30 81.47 47.02 81.00 47.00 Z"/>
</g>
<g fill="#FEF571" fill-opacity="1.00" stroke="None">
<path d="
M 70.00 62.00 
C 75.54 64.34 80.66 66.91 87.00 67.00
C 88.72 64.73 87.73 61.66 88.00 59.00
C 87.97 58.02 88.11 56.98 88.00 56.00
C 86.34 52.25 80.59 49.46 77.75 51.75 C 74.92 54.05 73.25 60.99 70.00 62.00 Z"/>
</g>
<g fill="#F4A03E" fill-opacity="1.00" stroke="None">
<path d="
M 193.00 51.00 
C 193.00 51.50 192.94 52.51 193.00 53.00
C 193.91 60.65 194.38 68.32 193.00 76.00
C 192.62 78.09 191.98 79.69 192.00 82.00
C 192.00 82.50 192.09 83.52 192.00 84.00
C 192.31 83.28 193.66 82.32 193.00 81.00
C 195.57 85.02 204.97 85.89 209.00 84.00
C 209.59 82.56 209.00 79.58 209.00 78.00
C 208.56 68.62 210.32 58.64 207.00 50.00
C 203.89 50.39 194.57 55.00 193.00 51.00
M 207.00 52.00 
C 208.60 62.09 208.69 73.22 206.00 83.00
C 203.27 80.72 199.37 78.65 196.00 81.00
C 196.00 71.67 196.00 62.33 196.00 53.00
C 199.59 55.64 203.39 52.47 207.00 52.00 Z"/>
</g>
<g fill="#8E5643" fill-opacity="1.00" stroke="None">
<path d="
M 184.00 74.00 
C 183.04 74.12 181.97 74.00 181.00 74.00
C 181.95 74.15 183.45 74.95 185.00 75.00
C 187.00 75.06 189.00 74.95 191.00 75.00
C 188.23 67.56 188.76 59.46 191.00 52.00
C 188.97 51.31 187.70 51.93 186.00 51.00
C 185.71 54.70 185.50 73.81 184.00 74.00 Z"/>
</g>
<g fill="#FCCD4D" fill-opacity="1.00" stroke="None">
<path d="
M 53.00 54.00 
C 53.00 54.00 52.35 53.77 52.00 54.00
C 51.26 54.85 51.36 55.10 50.00 55.00
C 50.36 54.62 50.03 58.81 50.00 59.00
C 51.71 55.16 52.50 59.89 52.00 62.00
C 58.98 62.87 63.14 68.07 71.00 65.00
C 72.73 71.58 80.33 78.12 86.00 75.00
C 86.49 74.58 87.37 74.11 88.00 74.00
C 84.84 70.24 89.37 67.64 90.00 65.00
C 89.49 63.63 90.91 60.07 90.00 59.00
C 89.51 59.07 88.31 59.24 88.00 59.00
C 87.73 61.66 88.72 64.73 87.00 67.00
C 80.66 66.91 75.54 64.34 70.00 62.00
C 63.84 62.23 59.78 56.26 56.00 52.00
C 55.09 52.53 53.77 53.22 53.00 54.00 Z"/>
</g>
<g fill="#873415" fill-opacity="1.00" stroke="None">
<path d="
M 185.00 75.00 
C 175.13 79.62 183.58 93.93 180.00 100.00
C 182.79 102.19 185.37 99.21 188.00 101.00
C 188.13 100.54 188.12 99.47 188.00 99.00
C 186.68 93.92 181.30 91.34 183.00 85.00 C 184.70 78.66 190.69 80.63 193.00 76.00
C 194.38 68.32 193.91 60.65 193.00 53.00
C 192.95 52.93 191.19 52.07 191.00 52.00
C 188.76 59.46 188.23 67.56 191.00 75.00
C 189.00 74.95 187.00 75.06 185.00 75.00 Z"/>
</g>
<g fill="#E6680C" fill-opacity="1.00" stroke="None">
<path d="
M 207.00 52.00 
C 203.39 52.47 199.59 55.64 196.00 53.00
C 196.00 62.33 196.00 71.67 196.00 81.00
C 199.37 78.65 203.27 80.72 206.00 83.00
C 208.69 73.22 208.60 62.09 207.00 52.00 Z"/>
</g>
<g fill="#B93126" fill-opacity="1.00" stroke="None">
<path d="
M 0.00 58.00 
C 6.61 57.21 19.60 60.84 25.22 60.78 C 30.85 60.72 48.13 64.53 49.00 61.00
C 32.93 62.08 15.96 56.25 0.00 56.00
L 0.00 58.00 Z"/>
</g>
<g fill="#F8A731" fill-opacity="1.00" stroke="None">
<path d="
M 50.00 59.00 
C 49.92 59.49 50.00 60.50 50.00 61.00
C 50.00 62.67 50.00 64.33 50.00 66.00
C 50.18 67.09 50.90 70.42 51.00 71.00
C 51.72 71.86 51.99 72.89 52.00 74.00
C 56.96 79.08 65.41 73.60 69.00 70.00
C 71.28 73.53 73.53 77.19 75.00 81.00
C 76.77 79.55 79.22 80.43 81.00 79.00
C 81.48 78.89 82.58 79.18 83.00 79.00
C 83.26 78.89 83.75 78.25 84.00 78.00
C 84.73 77.25 85.27 75.62 86.00 75.00
C 80.33 78.12 72.73 71.58 71.00 65.00
C 63.14 68.07 58.98 62.87 52.00 62.00
C 52.50 59.89 51.71 55.16 50.00 59.00 Z"/>
</g>
<g fill="#DF3524" fill-opacity="1.00" stroke="None">
<path d="
M 0.00 82.00 
C 1.34 82.93 2.32 81.22 3.00 81.00
C 7.44 77.59 18.17 77.24 25.02 74.02 C 31.88 70.81 43.98 72.25 50.00 68.00
C 49.85 67.55 50.00 66.50 50.00 66.00
C 50.00 64.33 50.00 62.67 50.00 61.00
C 50.00 61.00 49.50 60.97 49.00 61.00
C 48.13 64.53 30.85 60.72 25.22 60.78 C 19.60 60.84 6.61 57.21 0.00 58.00
L 0.00 82.00 Z"/>
</g>
<g fill="#DF8037" fill-opacity="1.00" stroke="None">
<path d="
M 88.00 74.00 
C 88.48 73.91 89.00 74.00 89.00 74.00
C 89.01 73.99 88.01 72.21 88.00 72.00
C 87.93 70.87 89.09 65.92 90.00 65.00
C 89.37 67.64 84.84 70.24 88.00 74.00 Z"/>
</g>
<g fill="#B62720" fill-opacity="1.00" stroke="None">
<path d="
M 88.00 72.00 
C 90.09 70.10 96.45 76.74 100.23 77.77 C 104.01 78.81 107.98 81.65 113.23 83.77 C 118.48 85.89 118.79 86.58 126.08 89.92 C 133.36 93.27 143.74 98.38 151.08 101.92 C 158.41 105.47 157.65 105.75 165.00 107.00
C 163.75 103.20 165.68 96.22 167.93 90.93 C 170.17 85.63 167.88 77.52 173.00 75.00
C 159.47 73.56 144.40 72.46 131.00 71.00 C 117.60 69.54 101.43 68.43 91.00 66.00
C 90.77 65.95 90.09 65.25 90.00 65.00
C 89.09 65.92 87.93 70.87 88.00 72.00 Z"/>
</g>
<g fill="#E77B3F" fill-opacity="1.00" stroke="None">
<path d="
M 50.00 68.00 
C 50.01 68.02 48.94 70.03 49.00 70.00
C 50.41 70.13 50.17 70.02 51.00 71.00
C 50.90 70.42 50.18 67.09 50.00 66.00
C 50.00 66.50 49.85 67.55 50.00 68.00 Z"/>
</g>
<g fill="#8E2317" fill-opacity="1.00" stroke="None">
<path d="
M 88.00 72.00 
C 88.01 72.21 89.01 73.99 89.00 74.00
C 101.02 76.82 112.18 85.61 123.69 90.31 C 135.21 95.00 146.85 101.30 158.00 107.00
C 160.02 108.03 161.99 108.97 164.00 110.00
C 166.99 111.53 170.01 112.69 173.00 114.00
C 174.25 114.55 175.66 115.81 177.00 116.00
C 179.19 116.31 181.53 115.61 183.00 114.00
C 184.84 109.83 186.78 105.40 188.00 101.00
C 185.37 99.21 182.79 102.19 180.00 100.00
C 183.58 93.93 175.13 79.62 185.00 75.00
C 183.45 74.95 181.95 74.15 181.00 74.00
C 179.35 74.00 177.64 74.14 176.00 74.00
C 172.85 73.73 168.73 72.26 166.00 72.00
C 146.45 72.00 127.18 68.83 108.00 67.00
C 106.04 66.81 103.32 66.15 102.00 66.00
C 98.56 65.90 94.35 66.74 91.00 66.00
C 101.43 68.43 117.60 69.54 131.00 71.00 C 144.40 72.46 159.47 73.56 173.00 75.00
C 167.88 77.52 170.17 85.63 167.93 90.93 C 165.68 96.22 163.75 103.20 165.00 107.00
C 157.65 105.75 158.41 105.47 151.08 101.92 C 143.74 98.38 133.36 93.27 126.08 89.92 C 118.79 86.58 118.48 85.89 113.23 83.77 C 107.98 81.65 104.01 78.81 100.23 77.77 C 96.45 76.74 90.09 70.10 88.00 72.00 Z"/>
</g>
<g fill="#F5A7A0" fill-opacity="1.00" stroke="None">
<path d="
M 108.00 67.00 
C 106.35 66.68 104.29 66.06 102.00 66.00
C 103.32 66.15 106.04 66.81 108.00 67.00 Z"/>
</g>
<g fill="#B13023" fill-opacity="1.00" stroke="None">
<path d="
M 3.00 81.00 
C 9.98 78.72 18.02 76.61 25.22 75.22 C 32.43 73.84 41.63 69.34 49.00 70.00
C 48.94 70.03 50.01 68.02 50.00 68.00
C 43.98 72.25 31.88 70.81 25.02 74.02 C 18.17 77.24 7.44 77.59 3.00 81.00 Z"/>
</g>
<g fill="#FEF0E1" fill-opacity="1.00" stroke="None">
<path d="
M 3.00 81.00 
C 2.32 81.22 1.34 82.93 0.00 82.00
L 0.00 110.00
C 16.38 97.35 36.37 88.65 52.00 75.00
C 51.81 74.59 52.00 74.00 52.00 74.00
C 51.99 72.89 51.72 71.86 51.00 71.00
C 50.17 70.02 50.41 70.13 49.00 70.00
C 41.63 69.34 32.43 73.84 25.22 75.22 C 18.02 76.61 9.98 78.72 3.00 81.00 Z"/>
</g>
<g fill="#EE8031" fill-opacity="1.00" stroke="None">
<path d="
M 52.00 74.00 
C 52.00 74.00 51.81 74.59 52.00 75.00
C 52.12 75.26 52.75 75.75 53.00 76.00
C 54.36 77.39 56.57 79.03 58.00 80.00
C 59.97 81.33 60.77 81.40 63.00 82.00
C 65.41 82.64 69.62 84.11 72.00 84.00
C 73.43 83.94 76.37 83.11 78.00 83.00
C 78.19 82.99 78.75 82.25 79.00 82.00
C 79.49 81.49 80.48 79.21 81.00 79.00
C 79.22 80.43 76.77 79.55 75.00 81.00
C 73.53 77.19 71.28 73.53 69.00 70.00
C 65.41 73.60 56.96 79.08 52.00 74.00 Z"/>
</g>
<g fill="#FBEEDF" fill-opacity="1.00" stroke="None">
<path d="
M 86.00 75.00 
C 85.27 75.62 84.73 77.25 84.00 78.00
C 87.63 80.21 90.13 84.13 93.00 87.00
C 96.25 90.25 99.79 93.79 103.00 97.00
C 109.28 103.28 116.24 109.26 122.00 116.00
C 124.27 118.65 126.93 121.27 129.00 124.00
L 147.00 124.00
C 150.25 120.86 152.73 107.73 158.00 107.00
C 146.85 101.30 135.21 95.00 123.69 90.31 C 112.18 85.61 101.02 76.82 89.00 74.00
C 89.00 74.00 88.48 73.91 88.00 74.00
C 87.37 74.11 86.49 74.58 86.00 75.00 Z"/>
</g>
<g fill="#A82D20" fill-opacity="1.00" stroke="None">
<path d="
M 0.00 110.00 
L 0.00 112.00
C 5.30 107.75 12.11 104.53 17.23 100.23 C 22.35 95.93 30.74 92.86 35.23 88.23 C 39.72 83.60 50.29 81.62 53.00 76.00
C 52.75 75.75 52.12 75.26 52.00 75.00
C 36.37 88.65 16.38 97.35 0.00 110.00 Z"/>
</g>
<g fill="#D42E23" fill-opacity="1.00" stroke="None">
<path d="
M 0.00 112.00 
L 0.00 124.00
L 26.00 124.00
C 35.42 109.02 46.39 92.79 58.00 80.00
C 56.57 79.03 54.36 77.39 53.00 76.00
C 50.29 81.62 39.72 83.60 35.23 88.23 C 30.74 92.86 22.35 95.93 17.23 100.23 C 12.11 104.53 5.30 107.75 0.00 112.00 Z"/>
</g>
<g fill="#9A4811" fill-opacity="1.00" stroke="None">
<path d="
M 188.00 99.00 
C 188.22 98.17 188.89 97.33 189.00 96.00
C 189.49 90.25 190.53 86.86 192.00 82.00
C 191.98 79.69 192.62 78.09 193.00 76.00
C 190.69 80.63 184.70 78.66 183.00 85.00 C 181.30 91.34 186.68 93.92 188.00 99.00 Z"/>
</g>
<g fill="#7C160E" fill-opacity="1.00" stroke="None">
<path d="
M 83.00 79.00 
C 92.33 82.21 97.13 95.35 104.75 101.25 C 112.37 107.14 119.97 117.35 127.00 124.00
L 129.00 124.00
C 126.93 121.27 124.27 118.65 122.00 116.00
C 115.75 109.75 109.20 103.20 103.00 97.00
C 99.75 93.75 96.21 90.21 93.00 87.00
C 90.41 84.41 86.84 80.02 84.00 78.00
C 83.75 78.25 83.26 78.89 83.00 79.00 Z"/>
</g>
<g fill="#BC675D" fill-opacity="1.00" stroke="None">
<path d="
M 93.00 87.00 
C 90.13 84.13 87.63 80.21 84.00 78.00
C 86.84 80.02 90.41 84.41 93.00 87.00 Z"/>
</g>
<g fill="#BD2821" fill-opacity="1.00" stroke="None">
<path d="
M 79.00 82.00 
C 88.13 93.59 88.98 111.99 98.00 124.00
L 127.00 124.00
C 119.97 117.35 112.37 107.14 104.75 101.25 C 97.13 95.35 92.33 82.21 83.00 79.00
C 82.58 79.18 81.48 78.89 81.00 79.00
C 80.48 79.21 79.49 81.49 79.00 82.00 Z"/>
</g>
<g fill="#9D201A" fill-opacity="1.00" stroke="None">
<path d="
M 26.00 124.00 
L 27.00 124.00
C 36.94 109.03 48.31 95.07 58.00 80.00
C 46.39 92.79 35.42 109.02 26.00 124.00 Z"/>
</g>
<g fill="#FEEEE1" fill-opacity="1.00" stroke="None">
<path d="
M 27.00 124.00 
L 52.00 124.00
C 53.41 110.50 62.44 97.61 63.00 84.00
C 63.02 83.50 63.23 82.15 63.00 82.00
C 60.77 81.40 59.97 81.33 58.00 80.00
C 48.31 95.07 36.94 109.03 27.00 124.00 Z"/>
</g>
<g fill="#FAD78F" fill-opacity="1.00" stroke="None">
<path d="
M 192.00 84.00 
C 191.63 85.95 191.42 87.99 191.00 90.00
C 191.04 91.33 190.97 92.67 191.00 94.00
C 194.79 96.15 203.79 94.83 206.00 96.00
C 207.91 92.49 207.83 88.01 209.00 84.00
C 204.97 85.89 195.57 85.02 193.00 81.00
C 193.66 82.32 192.31 83.28 192.00 84.00
M 203.00 86.00 
C 207.29 88.95 201.87 98.18 196.78 94.22 C 191.69 90.26 198.35 82.80 203.00 86.00 Z"/>
</g>
<g fill="#DA5B3B" fill-opacity="1.00" stroke="None">
<path d="
M 63.00 84.00 
C 64.10 82.63 64.43 83.96 65.00 84.00
C 66.40 84.09 68.72 83.48 70.00 84.00
C 70.25 84.10 71.94 85.83 72.00 86.00
C 72.00 85.50 71.76 84.31 72.00 84.00
C 69.62 84.11 65.41 82.64 63.00 82.00
C 63.23 82.15 63.02 83.50 63.00 84.00 Z"/>
</g>
<g fill="#FDEEE0" fill-opacity="1.00" stroke="None">
<path d="
M 72.00 84.00 
C 71.76 84.31 72.00 85.50 72.00 86.00
C 72.00 98.92 74.33 111.01 74.00 124.00
L 96.00 124.00
C 94.13 117.04 88.78 110.86 87.08 103.92 C 85.37 96.99 78.22 90.19 78.00 83.00
C 76.37 83.11 73.43 83.94 72.00 84.00 Z"/>
</g>
<g fill="#8E231B" fill-opacity="1.00" stroke="None">
<path d="
M 78.00 83.00 
C 78.22 90.19 85.37 96.99 87.08 103.92 C 88.78 110.86 94.13 117.04 96.00 124.00
L 98.00 124.00
C 88.98 111.99 88.13 93.59 79.00 82.00
C 78.75 82.25 78.19 82.99 78.00 83.00 Z"/>
</g>
<g fill="#BD7327" fill-opacity="1.00" stroke="None">
<path d="
M 189.00 96.00 
C 189.36 94.52 190.70 91.43 191.00 90.00
C 191.42 87.99 191.63 85.95 192.00 84.00
C 192.09 83.52 192.00 82.50 192.00 82.00
C 190.53 86.86 189.49 90.25 189.00 96.00 Z"/>
</g>
<g fill="#9B281F" fill-opacity="1.00" stroke="None">
<path d="
M 63.00 84.00 
C 62.44 97.61 53.41 110.50 52.00 124.00
L 54.00 124.00
C 54.12 119.56 56.87 114.60 57.33 110.33 C 57.79 106.05 61.16 101.06 60.98 96.98 C 60.79 92.89 66.12 87.46 65.00 84.00
C 64.43 83.96 64.10 82.63 63.00 84.00 Z"/>
</g>
<g fill="#C52822" fill-opacity="1.00" stroke="None">
<path d="
M 54.00 124.00 
L 73.00 124.00
C 72.22 110.62 70.93 97.36 70.00 84.00
C 68.72 83.48 66.40 84.09 65.00 84.00
C 66.12 87.46 60.79 92.89 60.98 96.98 C 61.16 101.06 57.79 106.05 57.33 110.33 C 56.87 114.60 54.12 119.56 54.00 124.00 Z"/>
</g>
<g fill="#951E16" fill-opacity="1.00" stroke="None">
<path d="
M 73.00 124.00 
L 74.00 124.00
C 74.33 111.01 72.00 98.92 72.00 86.00
C 71.94 85.83 70.25 84.10 70.00 84.00
C 70.93 97.36 72.22 110.62 73.00 124.00 Z"/>
</g>
<g fill="#FEF8DD" fill-opacity="1.00" stroke="None">
<path d="
M 203.00 86.00 
C 198.35 82.80 191.69 90.26 196.78 94.22 C 201.87 98.18 207.29 88.95 203.00 86.00 Z"/>
</g>
<g fill="#DB928A" fill-opacity="1.00" stroke="None">
<path d="
M 103.00 97.00 
C 99.79 93.79 96.25 90.25 93.00 87.00
C 96.21 90.21 99.75 93.75 103.00 97.00 Z"/>
</g>
<g fill="#F8B749" fill-opacity="1.00" stroke="None">
<path d="
M 189.00 96.00 
C 188.89 97.33 188.22 98.17 188.00 99.00
C 188.12 99.47 188.13 100.54 188.00 101.00
C 186.78 105.40 184.84 109.83 183.00 114.00
C 181.48 117.44 179.55 120.59 178.00 124.00
L 197.00 124.00
C 200.81 115.29 203.11 106.05 206.00 97.00
C 206.00 97.00 205.79 96.39 206.00 96.00
C 203.79 94.83 194.79 96.15 191.00 94.00
C 190.97 92.67 191.04 91.33 191.00 90.00
C 190.70 91.43 189.36 94.52 189.00 96.00
M 197.00 117.00 
C 193.81 123.25 189.34 119.62 184.00 120.00
C 183.86 118.19 184.44 115.92 186.00 115.00
C 188.21 108.79 189.89 102.29 192.00 96.00
C 195.45 96.96 199.41 99.55 203.00 97.00
C 202.32 104.02 199.61 110.52 197.00 117.00 Z"/>
</g>
<g fill="#D8570F" fill-opacity="1.00" stroke="None">
<path d="
M 186.00 115.00 
C 188.43 114.04 194.27 119.12 197.00 117.00
C 199.61 110.52 202.32 104.02 203.00 97.00
C 199.41 99.55 195.45 96.96 192.00 96.00
C 189.89 102.29 188.21 108.79 186.00 115.00 Z"/>
</g>
<g fill="#FDCFC5" fill-opacity="1.00" stroke="None">
<path d="
M 122.00 116.00 
C 116.24 109.26 109.28 103.28 103.00 97.00
C 109.20 103.20 115.75 109.75 122.00 116.00 Z"/>
</g>
<g fill="#FEF7D0" fill-opacity="1.00" stroke="None">
<path d="
M 197.00 124.00 
L 199.00 124.00
C 198.10 116.75 211.32 103.82 206.00 97.00
C 203.11 106.05 200.81 115.29 197.00 124.00 Z"/>
</g>
<g fill="#DBC4B3" fill-opacity="1.00" stroke="None">
<path d="
M 147.00 124.00 
L 158.00 124.00
C 158.40 119.83 166.62 114.05 164.00 110.00
C 161.99 108.97 160.02 108.03 158.00 107.00
C 152.73 107.73 150.25 120.86 147.00 124.00 Z"/>
</g>
<g fill="#B99683" fill-opacity="1.00" stroke="None">
<path d="
M 158.00 124.00 
L 167.00 124.00
C 168.88 120.55 170.87 117.28 173.00 114.00
C 170.01 112.69 166.99 111.53 164.00 110.00
C 166.62 114.05 158.40 119.83 158.00 124.00 Z"/>
</g>
<g fill="#9F6E4C" fill-opacity="1.00" stroke="None">
<path d="
M 167.00 124.00 
L 176.00 124.00
C 176.41 121.51 175.08 118.04 177.00 116.00
C 175.66 115.81 174.25 114.55 173.00 114.00
C 170.87 117.28 168.88 120.55 167.00 124.00 Z"/>
</g>
<g fill="#934F19" fill-opacity="1.00" stroke="None">
<path d="
M 177.00 116.00 
C 175.08 118.04 176.41 121.51 176.00 124.00
L 178.00 124.00
C 179.55 120.59 181.48 117.44 183.00 114.00
C 181.53 115.61 179.19 116.31 177.00 116.00 Z"/>
</g>
<g fill="#F2880A" fill-opacity="1.00" stroke="None">
<path d="
M 197.00 117.00 
C 194.27 119.12 188.43 114.04 186.00 115.00
C 184.44 115.92 183.86 118.19 184.00 120.00
C 189.34 119.62 193.81 123.25 197.00 117.00 Z"/>
</g>
</svg>