<?xml version="1.0" encoding="UTF-8" standalone="no" ?>
<!DOCTYPE svg PUBLIC "-//W3C//DTD SVG 1.1//EN" "http://www.w3.org/Graphics/SVG/1.1/DTD/svg11.dtd">
<svg xmlns="http://www.w3.org/2000/svg" xmlns:xlink="http://www.w3.org/1999/xlink" version="1.1" width="1080" height="1080" viewBox="0 0 1080 1080" xml:space="preserve">
<desc>Created with Fabric.js 5.2.4</desc>
<defs>
</defs>
<g transform="matrix(1 0 0 1 540 540)" id="1d68bae6-cd36-46f3-8b6d-ce4361fc5987"  >
<rect style="stroke: none; stroke-width: 1; stroke-dasharray: none; stroke-linecap: butt; stroke-dashoffset: 0; stroke-linejoin: miter; stroke-miterlimit: 4; fill: rgb(255,255,255); fill-rule: nonzero; opacity: 1; visibility: hidden;" vector-effect="non-scaling-stroke"  x="-540" y="-540" rx="0" ry="0" width="1080" height="1080" />
</g>
<g transform="matrix(1 0 0 1 540 540)" id="81da36b0-c2db-4442-b340-7771d88c859f"  >
</g>
<g transform="matrix(18.1 0 0 18.1 587.23 509.43)" id="fc8e4644-c3be-4f58-9645-5a8dbd7fb38d"  >
<path style="stroke: rgb(0,0,0); stroke-width: 0; stroke-dasharray: none; stroke-linecap: butt; stroke-dashoffset: 0; stroke-linejoin: miter; stroke-miterlimit: 4; fill: rgb(134,130,130); fill-rule: nonzero; opacity: 1;" vector-effect="non-scaling-stroke"  transform=" translate(-12, -12)" d="M 22 4 C 22.552284749830793 4 23 4.447715250169207 23 5 L 23 19 C 23 19.552284749830793 22.552284749830793 20 22 20 L 6 20 C 5.734805186521186 19.999943362594504 5.480492731357458 19.894549374810953 5.293 19.707 L 1.2930000000000001 15.707 C 1.1054506251890481 15.519507268642542 1.0000566374054949 15.265194813478814 0.9999999999999999 15 L 1 9 C 1.0000566374054947 8.734805186521186 1.1054506251890477 8.480492731357458 1.2929999999999997 8.293 L 5.293 4.292999999999999 C 5.480492731357458 4.1054506251890475 5.734805186521185 4.000056637405495 5.999999999999999 4 L 22 4 z M 21 6 L 6.414 6 L 3 9.414 L 3 14.585999999999999 L 6.414 18 L 21 18 L 21 6 z M 15 9.5 C 15 10.32842712474619 14.32842712474619 11 13.5 11 C 12.67157287525381 11 12 10.32842712474619 12 9.5 C 12 8.67157287525381 12.67157287525381 8 13.5 8 C 14.32842712474619 8 15 8.67157287525381 15 9.5 z M 17.5 16 C 18.32842712474619 16 19 15.32842712474619 19 14.5 C 19 13.67157287525381 18.32842712474619 13 17.5 13 C 16.67157287525381 13 16 13.67157287525381 16 14.5 C 16 15.32842712474619 16.67157287525381 16 17.5 16 z M 10 12 C 10 13.65685424949238 8.65685424949238 15 7 15 C 5.343145750507619 15 4 13.65685424949238 4 12 C 4 10.34314575050762 5.343145750507619 9 7 9 C 8.65685424949238 9 10 10.343145750507619 10 12 z M 6 12 C 6 12.552284749830793 6.447715250169207 13 7 13 C 7.552284749830793 13 8 12.552284749830793 8 12 C 8 11.447715250169207 7.552284749830793 11 7 11 C 6.447715250169207 11 6 11.447715250169207 6 12 z M 18.848 8.53 L 13.847999999999999 16.53 L 12.152 15.47 L 17.152 7.470000000000001 L 18.848000000000003 8.530000000000001 z" stroke-linecap="round" />
</g>
</svg>