<?xml version="1.0" encoding="UTF-8" standalone="no" ?>
<!DOCTYPE svg PUBLIC "-//W3C//DTD SVG 1.1//EN" "http://www.w3.org/Graphics/SVG/1.1/DTD/svg11.dtd">
<svg xmlns="http://www.w3.org/2000/svg" xmlns:xlink="http://www.w3.org/1999/xlink" version="1.1" width="1080" height="1080" viewBox="0 0 1080 1080" xml:space="preserve">
<desc>Created with Fabric.js 5.2.4</desc>
<defs>
</defs>
<rect x="0" y="0" width="100%" height="100%" fill="transparent"></rect>
<g transform="matrix(1 0 0 1 540 540)" id="ee4f7845-ef80-464a-bd4e-9f0faf05e42a"  >
<rect style="stroke: none; stroke-width: 1; stroke-dasharray: none; stroke-linecap: butt; stroke-dashoffset: 0; stroke-linejoin: miter; stroke-miterlimit: 4; fill: rgb(255,255,255); fill-rule: nonzero; opacity: 1; visibility: hidden;" vector-effect="non-scaling-stroke"  x="-540" y="-540" rx="0" ry="0" width="1080" height="1080" />
</g>
<g transform="matrix(1 0 0 1 540 540)" id="66f62ea7-9b06-4ac9-801f-a6e2435b3d4e"  >
</g>
<g transform="matrix(1.41 0 0 1.41 540 540)" id="f96c962c-12f9-40f3-b5c1-50dae6c05251"  >
<path style="stroke: rgb(0,0,0); stroke-width: 0; stroke-dasharray: none; stroke-linecap: butt; stroke-dashoffset: 0; stroke-linejoin: miter; stroke-miterlimit: 4; fill: rgb(40,178,211); fill-rule: nonzero; opacity: 1;" vector-effect="non-scaling-stroke"  transform=" translate(-12.5, -11.5)" d="M 18.994 1.888 L 19 2.002 L 19 5.002 L 22 5.002 C 22.813 5.002 23.256 5.8999999999999995 22.848 6.536 L 22.782999999999998 6.625 L 22.706999999999997 6.709 L 19.706999999999997 9.709 C 19.551446710312586 9.864420760669422 19.349002583536183 9.964236962066119 19.130999999999997 9.993 L 18.999999999999996 10.002 L 15.413999999999996 10.002 L 11.706999999999997 13.709 C 11.333523666913784 14.081210659860771 10.73521234155979 14.099480681649855 10.33972139548472 13.750751190120734 C 9.944230449409648 13.402021698591614 9.887465295765818 12.80612913019122 10.209999999999997 12.389 L 10.292999999999997 12.295 L 14 8.586 L 14 5.002 C 13.999981924220968 4.782201589939202 14.072380642010167 4.568519937435162 14.206 4.394 L 14.293 4.2940000000000005 L 17.293 1.2940000000000005 C 17.868 0.7200000000000005 18.816 1.0420000000000005 18.977 1.7800000000000005 L 18.994 1.8880000000000006 z M 12.501 4.127 C 8.639712212760909 3.4745824661433655 4.799719539934684 5.393844263774573 3.0038156668615983 8.873775483360157 C 1.2079117937885115 12.35370670294574 1.8683320708707232 16.595517004317585 4.6371867806079745 19.364747151981582 C 7.406041490345226 22.13397729964558 11.647762210287352 22.794972692382412 15.127936893767354 20.99954065890685 C 18.608111577247357 19.204108625431285 20.527893998910095 15.364376209144911 19.875999999999998 11.503 L 17.839 11.502 C 18.50451581687372 14.53838623662407 17.087940230546298 17.64993706427429 14.3608754277048 19.141805101860804 C 11.633810624863301 20.633673139447318 8.24958356101735 20.148449350704112 6.0515671051566144 17.950432894843377 C 3.8535506492958795 15.75241643898264 3.368326860552683 12.368189375136689 4.8601948981391985 9.64112457229519 C 6.352062935725714 6.914059769453694 9.463613763375943 5.497484183126274 12.50000000000001 6.163000000000002 L 12.5 4.127 z M 12.296 8.172 C 10.227073152906446 7.616758063624547 8.034309372367836 8.441136947339835 6.843596393406897 10.221854361268392 C 5.652883414445958 12.002571775196946 5.7287994475580595 14.343949638138799 7.032364949515115 16.043793421738307 C 8.33593045147217 17.743637205337812 10.57749121184282 18.424239070398578 12.606104393186719 17.73613990093808 C 14.634717574530615 17.048040731477585 15.999622284180194 15.144137195388101 16 13.002000000000002 L 15.99 12.695 C 15.971885032487442 12.391448772104248 15.926027114840402 12.090192378802517 15.853 11.795000000000002 L 15.829 11.708 L 13.941 13.598 C 13.642648366566279 15.071604775290957 12.299877331038843 16.097002008360576 10.799714607603432 15.996819504160833 C 9.299551884168022 15.896636999961089 8.105050650813546 14.701797955171841 8.005292344792094 13.201606963560236 C 7.905534038770643 11.701415971948633 8.93131092009001 10.3589349370029 10.405000000000001 10.061 L 12.295000000000002 8.172 z M 16 5.416 L 17 4.416 L 17 6.002000000000001 L 17.007 6.119000000000001 L 17.027 6.231000000000001 C 17.133234720283273 6.682579594073305 17.53609278250904 7.001802169588276 18 7.002000000000001 L 19.584 7.002000000000001 L 18.584 8.002 L 16 8.002 L 16 5.416 z" stroke-linecap="round" />
</g>
</svg>