<svg xmlns="http://www.w3.org/2000/svg" width="150" height="150" viewBox="0 0 1080 1080" xml:space="preserve">
  <path fill="transparent" d="M0 0h50v50H0z"/>
  <path style="stroke:#000;stroke-width:0;stroke-dasharray:none;stroke-linecap:butt;stroke-dashoffset:0;stroke-linejoin:miter;stroke-miterlimit:4;fill:#000;fill-rule:nonzero;opacity:1" vector-effect="non-scaling-stroke" transform="matrix(-1.97 0 0 1.97 -9942.29 1769.93)" d="M10 4h10a3 3 0 0 1 3 3v10a3 3 0 0 1-3 3H10a1 1 0 0 1-1-1 1 1 0 0 0-2 0 1 1 0 0 1-1 1H4a3 3 0 0 1-3-3V7a3 3 0 0 1 3-3h2a1 1 0 0 1 1 1 1 1 0 0 0 2 0 1 1 0 0 1 1-1zM8 8a3.001 3.001 0 0 1-2.83-2H4a1 1 0 0 0-1 1v10a1 1 0 0 0 1 1h1.17a3.001 3.001 0 0 1 5.66 0H20a1 1 0 0 0 1-1V7a1 1 0 0 0-1-1h-9.17A3.001 3.001 0 0 1 8 8zm5.5 2a1.5 1.5 0 1 0 0-3 1.5 1.5 0 0 0 0 3zm5.5 5.5a1.5 1.5 0 1 1-3 0 1.5 1.5 0 0 1 3 0zm-6.848-.03 1.696 1.06 5-8-1.696-1.06-5 8zM7 15v-2h2v2H7zm0-6v2h2V9H7z"/>
  <path style="stroke:#000;stroke-width:0;stroke-dasharray:none;stroke-linecap:butt;stroke-dashoffset:0;stroke-linejoin:miter;stroke-miterlimit:4;fill:#74a6e6;fill-rule:nonzero;opacity:1" vector-effect="non-scaling-stroke" transform="matrix(3.6 0 0 3.6 -15982.1 3755.48)" d="m18.994 1.888.006.114v3h3c.813 0 1.256.898.848 1.534l-.065.089-.076.084-3 3a1 1 0 0 1-.576.284l-.131.009h-3.586l-3.707 3.707a1 1 0 0 1-1.497-1.32l.083-.094L14 8.586V5.002a1 1 0 0 1 .206-.608l.087-.1 3-3c.575-.574 1.523-.252 1.684.486l.017.108zm-6.493 2.239a9 9 0 1 0 7.375 7.376l-2.037-.001A7 7 0 1 1 12.5 6.163V4.127zm-.205 4.045A5 5 0 1 0 16 13.002l-.01-.307a4.984 4.984 0 0 0-.137-.9l-.024-.087-1.888 1.89a3.001 3.001 0 1 1-3.536-3.537l1.89-1.889zM16 5.416l1-1v1.586l.007.117.02.112a1 1 0 0 0 .973.771h1.584l-1 1H16V5.416z"/>
  <g style="opacity:1">
    <rect style="stroke:none;stroke-width:1;stroke-dasharray:none;stroke-linecap:butt;stroke-dashoffset:0;stroke-linejoin:miter;stroke-miterlimit:4;fill:#fff;fill-opacity:0;fill-rule:nonzero;opacity:1" vector-effect="non-scaling-stroke" x="-50" y="-50" rx="0" ry="0" width="100" height="100" fill="none" transform="matrix(1.48 0 0 1.48 -185.2 -124.26)"/>
    <path style="stroke:#000;stroke-width:0;stroke-dasharray:none;stroke-linecap:butt;stroke-dashoffset:0;stroke-linejoin:miter;stroke-miterlimit:4;fill:#3faed1;fill-rule:nonzero;opacity:1" vector-effect="non-scaling-stroke" transform="translate(408.22 427.07) scale(10.98)" d="M15.9 4.888C15.492 3.22 13.888 2 12 2c-1.894 0-3.504 1.228-3.904 2.906l-.006-.014-.27.136a9 9 0 1 0 8.08-.14zm-.174 2.305.034-.099a7 7 0 1 1-7.523 0c.11.312.253.617.43.916a6 6 0 1 0 6.667 0c.157-.267.289-.54.392-.817zm-1.645 2.39.137-.137-.136.137h-.001zm0 0a4 4 0 1 1-4.162.001c.47.472.987.895 1.544 1.26l.537.341.537-.341a9.612 9.612 0 0 0 1.545-1.26zM10 5.723C10 4.792 10.873 4 12 4s2 .792 2 1.722c0 .725-.444 1.533-1.218 2.331a8.16 8.16 0 0 1-.515.487L12 8.762l-.267-.222a8.16 8.16 0 0 1-.515-.487C10.444 7.255 10 6.447 10 5.723z"/>
  </g>
</svg>
