<?xml version="1.0" encoding="UTF-8" standalone="no" ?>
<!DOCTYPE svg PUBLIC "-//W3C//DTD SVG 1.1//EN" "http://www.w3.org/Graphics/SVG/1.1/DTD/svg11.dtd">
<svg xmlns="http://www.w3.org/2000/svg" xmlns:xlink="http://www.w3.org/1999/xlink" version="1.1" width="1080" height="1080" viewBox="0 0 1080 1080" xml:space="preserve">
<desc>Created with Fabric.js 5.2.4</desc>
<defs>
</defs>
<g transform="matrix(1 0 0 1 540 540)" id="69f030ef-0f18-4959-bd4a-f96217279e56"  >
<rect style="stroke: none; stroke-width: 1; stroke-dasharray: none; stroke-linecap: butt; stroke-dashoffset: 0; stroke-linejoin: miter; stroke-miterlimit: 4; fill: rgb(255,255,255); fill-rule: nonzero; opacity: 1; visibility: hidden;" vector-effect="non-scaling-stroke"  x="-540" y="-540" rx="0" ry="0" width="1080" height="1080" />
</g>
<g transform="matrix(1 0 0 1 540 540)" id="a9bb8e20-6f20-4e85-bf98-599f91c2df20"  >
</g>
<g transform="matrix(1 0 0 1 1127.79 639.67)"  >
<g style="" vector-effect="non-scaling-stroke"   >
		<g transform="matrix(1.75 0 0 1.75 0 0)"  >
<path style="stroke: none; stroke-width: 1; stroke-dasharray: none; stroke-linecap: butt; stroke-dashoffset: 0; stroke-linejoin: miter; stroke-miterlimit: 4; fill: rgb(255,255,255); fill-rule: nonzero; opacity: 1;" vector-effect="non-scaling-stroke"  transform=" translate(-8, -8)" d="M 4 0 C 2.895430500338413 0 2 0.8954305003384131 2 2 L 2 14 C 2 15.104569499661586 2.895430500338413 16 4 16 L 12 16 C 13.104569499661586 16 14 15.104569499661586 14 14 L 14 2 C 14 0.8954305003384131 13.104569499661586 0 12 0 L 4 0 z M 4 1 L 12 1 C 12.552284749830793 1 13 1.4477152501692063 13 1.9999999999999998 L 13 14 C 13 14.552284749830793 12.552284749830793 15 12 15 L 4 15 C 3.4477152501692068 15 3 14.552284749830793 3 14 L 3 2 C 3 1.4477152501692065 3.4477152501692068 1 4 1 z" stroke-linecap="round" />
</g>
		<g transform="matrix(1.75 0 0 1.75 0.02 -0.27)"  >
<path style="stroke: none; stroke-width: 1; stroke-dasharray: none; stroke-linecap: butt; stroke-dashoffset: 0; stroke-linejoin: miter; stroke-miterlimit: 4; fill: rgb(255,255,255); fill-rule: nonzero; opacity: 1;" vector-effect="non-scaling-stroke"  transform=" translate(-8.01, -7.84)" d="M 4.603 12.087 C 4.408092368859178 12.009044991007075 4.25106076504713 11.858466740776345 4.165 11.667 C 3.97 11.279 4.035 10.891 4.245 10.565 C 4.4430000000000005 10.258 4.771 9.997 5.142 9.777999999999999 C 5.61193827958941 9.511471971562022 6.108688453410355 9.295275033563028 6.623999999999995 9.133000000000001 C 7.024181127462148 8.413584178875043 7.3788765028719645 7.669792652474232 7.685999999999998 6.906000000000005 C 7.502378264400008 6.488771138640906 7.358410784893851 6.055194659663062 7.256000000000001 5.610999999999999 C 7.170000000000001 5.2109999999999985 7.137000000000001 4.814999999999999 7.210000000000001 4.474999999999999 C 7.285000000000001 4.120999999999999 7.484000000000001 3.8029999999999986 7.860000000000001 3.651999999999999 C 8.052000000000001 3.574999999999999 8.260000000000002 3.5319999999999987 8.462000000000002 3.574999999999999 C 8.667770874309433 3.618804780672704 8.842928219205003 3.752835034104324 8.939000000000002 3.9399999999999986 C 9.027000000000001 4.103999999999998 9.059000000000001 4.2959999999999985 9.066000000000003 4.477999999999999 C 9.073000000000002 4.664999999999999 9.054000000000002 4.872999999999999 9.019000000000002 5.091999999999999 C 8.935000000000002 5.6019999999999985 8.749000000000002 6.225999999999999 8.499000000000002 6.885999999999999 C 8.774891423611741 7.476018169817254 9.102857424700158 8.040253555363249 9.478999999999997 8.571999999999996 C 9.924100344897536 8.536844771514732 10.37178012193652 8.553624373352774 10.813000000000002 8.622 C 11.177000000000003 8.687 11.547000000000002 8.817 11.773000000000003 9.087 C 11.893000000000002 9.231 11.966000000000003 9.407 11.973000000000003 9.605 C 11.980000000000002 9.797 11.926000000000002 9.987 11.835000000000003 10.168000000000001 C 11.756173923221796 10.335731524524498 11.633958298867723 10.479352145234369 11.481000000000003 10.584000000000001 C 11.329803968751639 10.682625446330595 11.151298442144919 10.730926941765356 10.971000000000004 10.722000000000001 C 10.640000000000004 10.708000000000002 10.317000000000004 10.526000000000002 10.038000000000004 10.305000000000001 C 9.698765593639784 10.02446884218877 9.393072788933088 9.705689298312413 9.127000000000006 9.355000000000004 C 8.45074563579936 9.4317009587651 7.782519643724493 9.567554615641615 7.13 9.761000000000006 C 6.830843352335746 10.290980961555377 6.489401620051516 10.795953552886608 6.1090000000000035 11.271000000000004 C 5.819000000000004 11.621000000000002 5.501000000000005 11.926000000000002 5.183000000000004 12.058000000000003 C 5.000288187365557 12.14065573356693 4.793045492727739 12.15101786829882 4.603000000000004 12.087000000000003 z M 5.981999999999999 10.186 C 5.815999999999999 10.262 5.661999999999999 10.342 5.523 10.424 C 5.194999999999999 10.618 4.981999999999999 10.806999999999999 4.8759999999999994 10.971 C 4.781999999999999 11.116 4.779999999999999 11.221 4.835999999999999 11.332 C 4.845999999999999 11.354000000000001 4.855999999999999 11.368 4.861999999999999 11.376000000000001 C 4.873927337810296 11.372805028998245 4.8856214552122665 11.36879561731757 4.896999999999999 11.364 C 5.033999999999999 11.308000000000002 5.251999999999999 11.129000000000001 5.531999999999999 10.792000000000002 C 5.691244818685112 10.597031915536812 5.841404638612772 10.394816691367563 5.981999999999999 10.186000000000002 z M 7.621999999999999 8.856 C 7.955911033952421 8.778001128932885 8.292856128387683 8.713614591085353 8.631999999999987 8.663 C 8.449837322644827 8.384406808496644 8.279681623187892 8.098144867057336 8.122 7.8050000000000015 C 7.9651804642873385 8.159604707469597 7.798448272567861 8.509742310080503 7.622 8.855000000000004 z M 10.068 9.306 C 10.218 9.468 10.363999999999999 9.606 10.503 9.716 C 10.743 9.905999999999999 10.91 9.969 11.001 9.972 C 11.02536348399656 9.975185502956066 11.050081028004648 9.969888886382904 11.071 9.956999999999999 C 11.112599341958571 9.92414724132547 11.144983569915592 9.8810831084039 11.165 9.831999999999999 C 11.200553811406113 9.771086752620292 11.220799452647794 9.70245746027561 11.223999999999998 9.632 C 11.223423758974496 9.608507027949202 11.214160476801167 9.586061382683061 11.197999999999999 9.568999999999999 C 11.145999999999999 9.507 10.998 9.417 10.679999999999998 9.36 C 10.477720780300558 9.326191007072408 10.273079919131872 9.308468840990805 10.067999999999998 9.306999999999999 z M 8.078 5.8 C 8.162161730306341 5.528521548318524 8.228963366476085 5.251962774575782 8.277999999999999 4.972 C 8.309 4.784 8.320999999999998 4.629 8.315999999999999 4.507 C 8.316276265183543 4.439690749538952 8.305464915644578 4.372795524266602 8.283999999999999 4.308999999999999 C 8.23397513791207 4.3151933874680095 8.185124916715445 4.328669310556734 8.139 4.348999999999999 C 8.052 4.3839999999999995 7.980999999999999 4.454999999999999 7.943 4.632 C 7.903 4.824 7.912999999999999 5.101 7.989 5.454 C 8.013 5.5649999999999995 8.043 5.681 8.079 5.8 z" stroke-linecap="round" />
</g>
</g>
</g>
<g transform="matrix(11.46 0 0 11.46 575.8 479.34)" id="01be08d0-40cf-4c3e-8b3c-6420f9c25702"  >
<path style="stroke: rgb(236,141,141); stroke-width: 0; stroke-dasharray: none; stroke-linecap: butt; stroke-dashoffset: 0; stroke-linejoin: miter; stroke-miterlimit: 4; fill: rgb(196,193,193); fill-rule: nonzero; opacity: 1;" vector-effect="non-scaling-stroke"  transform=" translate(-12, -12)" d="M 22 4 C 22.552284749830793 4 23 4.447715250169207 23 5 L 23 19 C 23 19.552284749830793 22.552284749830793 20 22 20 L 6 20 C 5.734805186521186 19.999943362594504 5.480492731357458 19.894549374810953 5.293 19.707 L 1.2930000000000001 15.707 C 1.1054506251890481 15.519507268642542 1.0000566374054949 15.265194813478814 0.9999999999999999 15 L 1 9 C 1.0000566374054947 8.734805186521186 1.1054506251890477 8.480492731357458 1.2929999999999997 8.293 L 5.293 4.292999999999999 C 5.480492731357458 4.1054506251890475 5.734805186521185 4.000056637405495 5.999999999999999 4 L 22 4 z M 21 6 L 6.414 6 L 3 9.414 L 3 14.585999999999999 L 6.414 18 L 21 18 L 21 6 z M 15 9.5 C 15 10.32842712474619 14.32842712474619 11 13.5 11 C 12.67157287525381 11 12 10.32842712474619 12 9.5 C 12 8.67157287525381 12.67157287525381 8 13.5 8 C 14.32842712474619 8 15 8.67157287525381 15 9.5 z M 17.5 16 C 18.32842712474619 16 19 15.32842712474619 19 14.5 C 19 13.67157287525381 18.32842712474619 13 17.5 13 C 16.67157287525381 13 16 13.67157287525381 16 14.5 C 16 15.32842712474619 16.67157287525381 16 17.5 16 z M 10 12 C 10 13.65685424949238 8.65685424949238 15 7 15 C 5.343145750507619 15 4 13.65685424949238 4 12 C 4 10.34314575050762 5.343145750507619 9 7 9 C 8.65685424949238 9 10 10.343145750507619 10 12 z M 6 12 C 6 12.552284749830793 6.447715250169207 13 7 13 C 7.552284749830793 13 8 12.552284749830793 8 12 C 8 11.447715250169207 7.552284749830793 11 7 11 C 6.447715250169207 11 6 11.447715250169207 6 12 z M 18.848 8.53 L 13.847999999999999 16.53 L 12.152 15.47 L 17.152 7.470000000000001 L 18.848000000000003 8.530000000000001 z" stroke-linecap="round" />
</g>
</svg>